<svg width="749" height="424" viewBox="0 0 749 424" fill="none" xmlns="http://www.w3.org/2000/svg">
<mask id="path-1-inside-1_489_236" fill="white">
<rect x="62" width="53" height="30" rx="1"/>
</mask>
<rect x="62" width="53" height="30" rx="1" stroke="#FDCF07" stroke-width="6" mask="url(#path-1-inside-1_489_236)"/>
<path d="M97.5 15C97.5 18.9974 93.847 22.5 89 22.5C84.153 22.5 80.5 18.9974 80.5 15C80.5 11.0026 84.153 7.5 89 7.5C93.847 7.5 97.5 11.0026 97.5 15Z" stroke="#FDCF07" stroke-width="3"/>
<path d="M10.78 72.7445C10.946 71.6435 11.1023 70.8388 11.2427 70.3137C11.6346 70.2903 12.182 70.2644 12.8954 70.2381C14.2255 70.189 16.034 70.1407 18.2571 70.0937C22.7019 69.9999 28.7829 69.9118 35.9649 69.8338C50.3279 69.6778 69.0807 69.5619 87.9259 69.5186C106.771 69.4753 125.705 69.5046 140.429 69.6389C147.793 69.7061 154.097 69.7995 158.811 69.923C161.168 69.9848 163.119 70.0539 164.602 70.1305C165.713 70.1879 166.511 70.2476 167.013 70.3039C167.032 70.3472 167.053 70.3972 167.076 70.4547C167.274 70.9557 167.496 71.7565 167.728 72.8903C168.19 75.1395 168.645 78.4461 169.086 82.6962C169.965 91.1823 170.772 103.269 171.479 117.816C172.892 146.902 173.902 185.738 174.305 225.085C174.709 264.433 174.506 304.272 173.497 335.365C172.992 350.915 172.287 364.257 171.356 374.249C170.891 379.248 170.372 383.382 169.799 386.524C169.513 388.096 169.217 389.397 168.915 390.422C168.606 391.47 168.316 392.14 168.078 392.51C167.552 393.329 166.579 394.197 165.058 395.068C163.55 395.93 161.594 396.743 159.223 397.495C154.481 399 148.236 400.214 140.943 401.144C126.368 403.004 107.816 403.71 89.1928 403.447C70.5732 403.185 51.9364 401.956 37.1995 399.962C29.8272 398.965 23.4665 397.781 18.5854 396.443C16.1442 395.774 14.1044 395.074 12.5067 394.355C10.8842 393.624 9.83046 392.922 9.2532 392.3C9.07792 392.112 8.79286 391.64 8.46483 390.714C8.14981 389.824 7.8398 388.647 7.5407 387.179C6.94301 384.247 6.41486 380.288 5.95546 375.427C5.03737 365.712 4.40622 352.532 4.01402 337.053C3.22981 306.105 3.40317 266.071 4.12711 226.415C4.85101 186.761 6.12507 147.504 7.54068 118.115C8.24861 103.417 8.99131 91.2015 9.71718 82.6418C10.0805 78.3571 10.4375 75.0153 10.78 72.7445ZM166.891 70.0694C166.892 70.0704 166.892 70.0716 166.893 70.073C166.883 70.061 166.883 70.0583 166.891 70.0694Z" fill="#FDCF07" stroke="black" stroke-width="3"/>
<path d="M10.7033 395.321C72.5363 407.033 108.705 406.938 168.602 395.402C170.467 395.043 172.285 396.216 172.714 398.044L175.362 409.322C175.812 411.242 174.577 413.158 172.644 413.537C110.507 425.73 72.1922 425.248 5.84447 413.521C3.77505 413.156 2.49448 411.049 3.12204 409.044L6.66776 397.717C7.19772 396.023 8.93776 394.986 10.7033 395.321Z" fill="#FDCF07" stroke="black" stroke-width="3"/>
<rect x="5.5" y="53.5" width="166" height="16" rx="3.5" fill="#FDCF07" stroke="black" stroke-width="3"/>
<path d="M35.0746 42.5H141.239C143.41 42.8431 145.583 44.5426 148.344 47.4983C150.367 49.6634 148.729 53.5 145.606 53.5H31.111C28.1494 53.5 26.496 50.0436 28.2413 47.8393C29.5939 46.1309 30.7957 44.8016 31.9529 43.8869C33.0827 42.9938 34.0878 42.5613 35.0746 42.5Z" fill="#FDCF07" stroke="black" stroke-width="3"/>
<path d="M52.4754 32.8754C53.277 31.8337 53.8258 31.5466 54.1569 31.5H122.34C122.648 31.5 122.77 31.5274 122.826 31.5495C123.355 31.7601 124.009 32.2839 124.812 33.2807C125.6 34.2585 126.425 35.5538 127.341 37.1195C128.702 39.4454 126.951 42.5 124.205 42.5H53.0487C50.4271 42.5 48.7006 39.7152 49.8428 37.4186C50.8183 35.4571 51.6674 33.9254 52.4754 32.8754Z" fill="#FDCF07" stroke="black" stroke-width="3"/>
<path d="M68.72 357.256C68.72 351.096 70.095 346.165 72.845 342.461C75.5583 338.758 80.5083 336.906 87.695 336.906C94.7717 336.906 99.7583 338.685 102.655 342.241C105.552 345.798 107 350.583 107 356.596V369.521H68.72V357.256ZM76.695 358.191H99.025V355.936C99.025 354.176 98.6767 352.765 97.98 351.701C97.2833 350.638 96.1283 349.85 94.515 349.336C92.865 348.823 90.5917 348.566 87.695 348.566C84.835 348.566 82.6167 348.841 81.04 349.391C79.4267 349.905 78.3083 350.693 77.685 351.756C77.025 352.82 76.695 354.195 76.695 355.881V358.191ZM107 313.89L99.575 315.375V324.45L107 325.88V337.705L68.72 326.54V313.01L107 301.9V313.89ZM91.655 322.855V316.97L76.64 319.94L91.655 322.855ZM93.36 287.512V289.602H107V300.932H68.72V286.907C68.72 281.371 69.71 277.246 71.69 274.532C73.6333 271.819 76.695 270.462 80.875 270.462C83.2583 270.462 85.2383 270.994 86.815 272.057C88.3917 273.121 89.8767 274.844 91.27 277.227L107 267.877V280.417L93.36 287.512ZM85.77 289.602V286.632C85.77 285.092 85.3667 283.937 84.56 283.167C83.7533 282.397 82.525 282.012 80.875 282.012C77.9417 282.012 76.475 283.736 76.475 287.182V289.602H85.77ZM68.72 255.281H107V266.611H68.72L68.72 255.281ZM68.72 232.621L85.715 243.456L107 231.631V244.501L86.595 254.951L68.72 244.281V232.621ZM86.705 195.776C87.2183 193.246 88.1717 191.193 89.565 189.616C90.9217 188.04 92.9567 187.251 95.67 187.251C99.8867 187.251 102.838 188.791 104.525 191.871C106.175 194.915 107 199.241 107 204.851L107 218.271H68.72V206.336C68.72 200.653 69.49 196.326 71.03 193.356C72.5333 190.35 75.0633 188.846 78.62 188.846C80.8933 188.846 82.69 189.506 84.01 190.826C85.2933 192.146 86.1917 193.796 86.705 195.776ZM76.475 206.941H83.515V205.016C83.515 203.293 83.24 202.083 82.69 201.386C82.1033 200.69 81.1317 200.341 79.775 200.341C78.6383 200.341 77.8133 200.726 77.3 201.496C76.75 202.23 76.475 203.495 76.475 205.291V206.941ZM99.025 204.741C99.025 202.835 98.7317 201.386 98.145 200.396C97.5583 199.406 96.4767 198.911 94.9 198.911C93.4333 198.911 92.37 199.37 91.71 200.286C91.0133 201.166 90.665 202.505 90.665 204.301V206.941H99.025V204.741ZM68.72 172.727H98.31V158.262L107 159.417V184.057H68.72V172.727ZM94.02 125.478C96.6967 125.478 99.0983 126.065 101.225 127.238C103.352 128.412 105.038 130.19 106.285 132.573C107.495 134.957 108.1 137.89 108.1 141.373C108.1 146.617 106.835 150.577 104.305 153.253C101.775 155.93 98.3467 157.268 94.02 157.268H68.72V145.938H93.69C95.8533 145.938 97.4483 145.59 98.475 144.893C99.465 144.16 99.96 142.987 99.96 141.373C99.96 139.76 99.465 138.605 98.475 137.908C97.4483 137.175 95.8533 136.808 93.69 136.808H68.72V125.478H94.02ZM68.72 96.188L76.585 97.343V109.993H83.735V98.883H91.38V109.993H99.08L99.08 96.463H107L107 121.323H68.72V96.188Z" fill="black"/>
<mask id="path-9-inside-2_489_236" fill="white">
<rect x="251" width="53" height="30" rx="1"/>
</mask>
<rect x="251" width="53" height="30" rx="1" stroke="#FDCF07" stroke-width="6" mask="url(#path-9-inside-2_489_236)"/>
<path d="M286.5 15C286.5 18.9974 282.847 22.5 278 22.5C273.153 22.5 269.5 18.9974 269.5 15C269.5 11.0026 273.153 7.5 278 7.5C282.847 7.5 286.5 11.0026 286.5 15Z" stroke="#FDCF07" stroke-width="3"/>
<path d="M199.78 72.7445C199.946 71.6435 200.102 70.8388 200.243 70.3137C200.635 70.2903 201.182 70.2644 201.895 70.2381C203.226 70.189 205.034 70.1407 207.257 70.0937C211.702 69.9999 217.783 69.9118 224.965 69.8338C239.328 69.6778 258.081 69.5619 276.926 69.5186C295.771 69.4753 314.705 69.5046 329.429 69.6389C336.793 69.7061 343.097 69.7995 347.811 69.923C350.168 69.9848 352.119 70.0539 353.602 70.1305C354.713 70.1879 355.511 70.2476 356.013 70.3039C356.032 70.3472 356.053 70.3972 356.076 70.4547C356.274 70.9557 356.496 71.7565 356.728 72.8903C357.19 75.1395 357.645 78.4461 358.086 82.6962C358.965 91.1823 359.772 103.269 360.479 117.816C361.892 146.902 362.902 185.738 363.305 225.085C363.709 264.433 363.506 304.272 362.497 335.365C361.992 350.915 361.287 364.257 360.356 374.249C359.891 379.248 359.372 383.382 358.799 386.524C358.513 388.096 358.217 389.397 357.915 390.422C357.606 391.47 357.316 392.14 357.078 392.51C356.552 393.329 355.579 394.197 354.058 395.068C352.55 395.93 350.594 396.743 348.223 397.495C343.481 399 337.236 400.214 329.943 401.144C315.368 403.004 296.816 403.71 278.193 403.447C259.573 403.185 240.936 401.956 226.199 399.962C218.827 398.965 212.466 397.781 207.585 396.443C205.144 395.774 203.104 395.074 201.507 394.355C199.884 393.624 198.83 392.922 198.253 392.3C198.078 392.112 197.793 391.64 197.465 390.714C197.15 389.824 196.84 388.647 196.541 387.179C195.943 384.247 195.415 380.288 194.955 375.427C194.037 365.712 193.406 352.532 193.014 337.053C192.23 306.105 192.403 266.071 193.127 226.415C193.851 186.761 195.125 147.504 196.541 118.115C197.249 103.417 197.991 91.2015 198.717 82.6418C199.081 78.3571 199.438 75.0153 199.78 72.7445ZM355.891 70.0694C355.892 70.0704 355.892 70.0716 355.893 70.073C355.883 70.061 355.883 70.0583 355.891 70.0694Z" fill="#FDCF07" stroke="black" stroke-width="3"/>
<path d="M199.703 395.321C261.536 407.033 297.705 406.938 357.602 395.402C359.467 395.043 361.285 396.216 361.714 398.044L364.362 409.322C364.812 411.242 363.577 413.158 361.644 413.537C299.507 425.73 261.192 425.248 194.844 413.521C192.775 413.156 191.494 411.049 192.122 409.044L195.668 397.717C196.198 396.023 197.938 394.986 199.703 395.321Z" fill="#FDCF07" stroke="black" stroke-width="3"/>
<rect x="194.5" y="53.5" width="166" height="16" rx="3.5" fill="#FDCF07" stroke="black" stroke-width="3"/>
<path d="M224.075 42.5H330.239C332.41 42.8431 334.583 44.5426 337.344 47.4983C339.367 49.6634 337.729 53.5 334.606 53.5H220.111C217.149 53.5 215.496 50.0436 217.241 47.8393C218.594 46.1309 219.796 44.8016 220.953 43.8869C222.083 42.9938 223.088 42.5613 224.075 42.5Z" fill="#FDCF07" stroke="black" stroke-width="3"/>
<path d="M241.475 32.8754C242.277 31.8337 242.826 31.5466 243.157 31.5H311.34C311.648 31.5 311.77 31.5274 311.826 31.5495C312.355 31.7601 313.009 32.2839 313.812 33.2807C314.6 34.2585 315.425 35.5538 316.341 37.1195C317.702 39.4454 315.951 42.5 313.205 42.5H242.049C239.427 42.5 237.701 39.7152 238.843 37.4186C239.818 35.4571 240.667 33.9254 241.475 32.8754Z" fill="#FDCF07" stroke="black" stroke-width="3"/>
<mask id="path-16-inside-3_489_236" fill="white">
<rect x="442" width="53" height="30" rx="1"/>
</mask>
<rect x="442" width="53" height="30" rx="1" stroke="#FDCF07" stroke-width="6" mask="url(#path-16-inside-3_489_236)"/>
<path d="M477.5 15C477.5 18.9974 473.847 22.5 469 22.5C464.153 22.5 460.5 18.9974 460.5 15C460.5 11.0026 464.153 7.5 469 7.5C473.847 7.5 477.5 11.0026 477.5 15Z" stroke="#FDCF07" stroke-width="3"/>
<path d="M390.78 72.7445C390.946 71.6435 391.102 70.8388 391.243 70.3137C391.635 70.2903 392.182 70.2644 392.895 70.2381C394.226 70.189 396.034 70.1407 398.257 70.0937C402.702 69.9999 408.783 69.9118 415.965 69.8338C430.328 69.6778 449.081 69.5619 467.926 69.5186C486.771 69.4753 505.705 69.5046 520.429 69.6389C527.793 69.7061 534.097 69.7995 538.811 69.923C541.168 69.9848 543.119 70.0539 544.602 70.1305C545.713 70.1879 546.511 70.2476 547.013 70.3039C547.032 70.3472 547.053 70.3972 547.076 70.4547C547.274 70.9557 547.496 71.7565 547.728 72.8903C548.19 75.1395 548.645 78.4461 549.086 82.6962C549.965 91.1823 550.772 103.269 551.479 117.816C552.892 146.902 553.902 185.738 554.305 225.085C554.709 264.433 554.506 304.272 553.497 335.365C552.992 350.915 552.287 364.257 551.356 374.249C550.891 379.248 550.372 383.382 549.799 386.524C549.513 388.096 549.217 389.397 548.915 390.422C548.606 391.47 548.316 392.14 548.078 392.51C547.552 393.329 546.579 394.197 545.058 395.068C543.55 395.93 541.594 396.743 539.223 397.495C534.481 399 528.236 400.214 520.943 401.144C506.368 403.004 487.816 403.71 469.193 403.447C450.573 403.185 431.936 401.956 417.199 399.962C409.827 398.965 403.466 397.781 398.585 396.443C396.144 395.774 394.104 395.074 392.507 394.355C390.884 393.624 389.83 392.922 389.253 392.3C389.078 392.112 388.793 391.64 388.465 390.714C388.15 389.824 387.84 388.647 387.541 387.179C386.943 384.247 386.415 380.288 385.955 375.427C385.037 365.712 384.406 352.532 384.014 337.053C383.23 306.105 383.403 266.071 384.127 226.415C384.851 186.761 386.125 147.504 387.541 118.115C388.249 103.417 388.991 91.2015 389.717 82.6418C390.081 78.3571 390.438 75.0153 390.78 72.7445ZM546.891 70.0694C546.892 70.0704 546.892 70.0716 546.893 70.073C546.883 70.061 546.883 70.0583 546.891 70.0694Z" fill="#FDCF07" stroke="black" stroke-width="3"/>
<path d="M390.703 395.321C452.536 407.033 488.705 406.938 548.602 395.402C550.467 395.043 552.285 396.216 552.714 398.044L555.362 409.322C555.812 411.242 554.577 413.158 552.644 413.537C490.507 425.73 452.192 425.248 385.844 413.521C383.775 413.156 382.494 411.049 383.122 409.044L386.668 397.717C387.198 396.023 388.938 394.986 390.703 395.321Z" fill="#FDCF07" stroke="black" stroke-width="3"/>
<rect x="385.5" y="53.5" width="166" height="16" rx="3.5" fill="#FDCF07" stroke="black" stroke-width="3"/>
<path d="M415.075 42.5H521.239C523.41 42.8431 525.583 44.5426 528.344 47.4983C530.367 49.6634 528.729 53.5 525.606 53.5H411.111C408.149 53.5 406.496 50.0436 408.241 47.8393C409.594 46.1309 410.796 44.8016 411.953 43.8869C413.083 42.9938 414.088 42.5613 415.075 42.5Z" fill="#FDCF07" stroke="black" stroke-width="3"/>
<path d="M432.475 32.8754C433.277 31.8337 433.826 31.5466 434.157 31.5H502.34C502.648 31.5 502.77 31.5274 502.826 31.5495C503.355 31.7601 504.009 32.2839 504.812 33.2807C505.6 34.2585 506.425 35.5538 507.341 37.1195C508.702 39.4454 506.951 42.5 504.205 42.5H433.049C430.427 42.5 428.701 39.7152 429.843 37.4186C430.818 35.4571 431.667 33.9254 432.475 32.8754Z" fill="#FDCF07" stroke="black" stroke-width="3"/>
<mask id="path-23-inside-4_489_236" fill="white">
<rect x="633" width="53" height="30" rx="1"/>
</mask>
<rect x="633" width="53" height="30" rx="1" stroke="#FDCF07" stroke-width="6" mask="url(#path-23-inside-4_489_236)"/>
<path d="M668.5 15C668.5 18.9974 664.847 22.5 660 22.5C655.153 22.5 651.5 18.9974 651.5 15C651.5 11.0026 655.153 7.5 660 7.5C664.847 7.5 668.5 11.0026 668.5 15Z" stroke="#FDCF07" stroke-width="3"/>
<path d="M581.78 72.7445C581.946 71.6435 582.102 70.8388 582.243 70.3137C582.635 70.2903 583.182 70.2644 583.895 70.2381C585.226 70.189 587.034 70.1407 589.257 70.0937C593.702 69.9999 599.783 69.9118 606.965 69.8338C621.328 69.6778 640.081 69.5619 658.926 69.5186C677.771 69.4753 696.705 69.5046 711.429 69.6389C718.793 69.7061 725.097 69.7995 729.811 69.923C732.168 69.9848 734.119 70.0539 735.602 70.1305C736.713 70.1879 737.511 70.2476 738.013 70.3039C738.032 70.3472 738.053 70.3972 738.076 70.4547C738.274 70.9557 738.496 71.7565 738.728 72.8903C739.19 75.1395 739.645 78.4461 740.086 82.6962C740.965 91.1823 741.772 103.269 742.479 117.816C743.892 146.902 744.902 185.738 745.305 225.085C745.709 264.433 745.506 304.272 744.497 335.365C743.992 350.915 743.287 364.257 742.356 374.249C741.891 379.248 741.372 383.382 740.799 386.524C740.513 388.096 740.217 389.397 739.915 390.422C739.606 391.47 739.316 392.14 739.078 392.51C738.552 393.329 737.579 394.197 736.058 395.068C734.55 395.93 732.594 396.743 730.223 397.495C725.481 399 719.236 400.214 711.943 401.144C697.368 403.004 678.816 403.71 660.193 403.447C641.573 403.185 622.936 401.956 608.199 399.962C600.827 398.965 594.466 397.781 589.585 396.443C587.144 395.774 585.104 395.074 583.507 394.355C581.884 393.624 580.83 392.922 580.253 392.3C580.078 392.112 579.793 391.64 579.465 390.714C579.15 389.824 578.84 388.647 578.541 387.179C577.943 384.247 577.415 380.288 576.955 375.427C576.037 365.712 575.406 352.532 575.014 337.053C574.23 306.105 574.403 266.071 575.127 226.415C575.851 186.761 577.125 147.504 578.541 118.115C579.249 103.417 579.991 91.2015 580.717 82.6418C581.081 78.3571 581.438 75.0153 581.78 72.7445ZM737.891 70.0694C737.892 70.0704 737.892 70.0716 737.893 70.073C737.883 70.061 737.883 70.0583 737.891 70.0694Z" fill="#FDCF07" stroke="black" stroke-width="3"/>
<path d="M581.703 395.321C643.536 407.033 679.705 406.938 739.602 395.402C741.467 395.043 743.285 396.216 743.714 398.044L746.362 409.322C746.812 411.242 745.577 413.158 743.644 413.537C681.507 425.73 643.192 425.248 576.844 413.521C574.775 413.156 573.494 411.049 574.122 409.044L577.668 397.717C578.198 396.023 579.938 394.986 581.703 395.321Z" fill="#FDCF07" stroke="black" stroke-width="3"/>
<rect x="576.5" y="53.5" width="166" height="16" rx="3.5" fill="#FDCF07" stroke="black" stroke-width="3"/>
<path d="M606.075 42.5H712.239C714.41 42.8431 716.583 44.5426 719.344 47.4983C721.367 49.6634 719.729 53.5 716.606 53.5H602.111C599.149 53.5 597.496 50.0436 599.241 47.8393C600.594 46.1309 601.796 44.8016 602.953 43.8869C604.083 42.9938 605.088 42.5613 606.075 42.5Z" fill="#FDCF07" stroke="black" stroke-width="3"/>
<path d="M623.475 32.8754C624.277 31.8337 624.826 31.5466 625.157 31.5H693.34C693.648 31.5 693.77 31.5274 693.826 31.5495C694.355 31.7601 695.009 32.2839 695.812 33.2807C696.6 34.2585 697.425 35.5538 698.341 37.1195C699.702 39.4454 697.951 42.5 695.205 42.5H624.049C621.427 42.5 619.701 39.7152 620.843 37.4186C621.818 35.4571 622.667 33.9254 623.475 32.8754Z" fill="#FDCF07" stroke="black" stroke-width="3"/>
<path d="M266.95 331.842H282.295C285.54 331.842 287.08 333.162 287.08 335.637C287.08 339.377 282.13 343.942 278.5 343.942C276.355 343.942 274.925 342.952 274.925 339.597L275.035 339.542H266.95V345.702H260.79V310.942H266.95V316.002H295V323.702H266.95V331.842ZM292.195 292.727C291.15 291.132 289.94 290.197 288.62 290.197C286.915 290.197 285.65 291.627 285.65 294.982C285.65 298.942 287.245 301.087 289.885 301.087C293.185 301.087 295.165 297.402 297.97 288.987L303.965 292.232C300.775 303.397 296.265 308.732 289.995 308.732C286.915 308.732 284.605 307.632 282.955 305.707C281.14 307.797 279.16 308.787 277.015 308.787C272.56 308.787 270.14 305.377 270.14 299.217V292.452H266.95V311.757H260.79V279.802H266.95V284.862H276.025V298.062C276.025 300.262 276.795 301.252 278.17 301.252C278.94 301.252 279.655 300.867 280.315 300.097C279.93 298.447 279.71 296.577 279.71 294.597C279.71 286.127 283.725 282.607 288.345 282.607C291.205 282.607 293.57 283.762 295.825 286.457L292.195 292.727ZM291.315 257.999L296.21 263.279C291.15 269.219 286.805 273.619 283.01 276.314C280.645 278.074 278.885 278.789 277.015 278.789C274.705 278.789 273.22 277.194 273.22 274.719C273.22 272.849 273.99 271.309 275.42 269.659C274.21 267.899 272.615 267.129 270.47 267.129C269.205 267.129 267.995 267.349 266.95 267.734V280.604H260.79V255.524H266.95V260.144C268.215 259.759 269.7 259.484 271.57 259.484C276.96 259.484 280.37 262.839 282.46 268.229C285.43 265.204 288.345 261.794 291.315 257.999ZM266.95 244.392H295V252.092H266.95V256.327H260.79V239.332H266.95V244.392ZM260.79 228.075V193.425H266.95V198.485H295V206.185H280.645V214.325H281.855C285.1 214.325 286.585 215.7 286.585 218.175C286.585 221.805 281.69 226.37 278.06 226.37C275.915 226.37 274.485 225.435 274.485 222.08V206.185H266.95V228.075H260.79ZM266.95 182.302H295V190.002H266.95V194.237H260.79V190.057C254.96 191.432 251.88 193.577 251.88 196.932C251.88 199.517 253.42 200.727 255.895 200.727C257.71 200.727 259.525 200.067 261.175 199.242V206.722C258.975 207.767 256.72 208.372 254.63 208.372C249.24 208.372 245.72 204.632 245.72 198.197C245.72 189.067 251.88 185.162 260.79 183.017V177.242H266.95V182.302ZM266.95 178.07H260.79V136.71H266.95V141.77H295V149.415H277.675V149.47C277.675 152.495 279.985 154.42 285.375 155.135L283.67 162.45C281.8 162.23 280.15 161.79 278.72 161.185C278.17 162.065 277.785 163.11 277.785 164.32C277.785 166.96 279.435 168.445 281.91 168.445C285.1 168.445 287.465 166.08 290.655 159.7L296.265 163.77C292.635 171.47 287.905 176.145 281.415 176.145C274.815 176.145 271.57 171.8 271.57 165.64C271.57 162.45 272.56 159.975 274.265 157.885C272.56 155.85 271.68 153.155 271.68 149.91C271.68 149.745 271.68 149.58 271.68 149.415H266.95V178.07ZM266.95 125.53H295V133.23H266.95V137.465H260.79V120.47H266.95V125.53Z" fill="black"/>
<path d="M469.705 362.698C470.218 360.168 471.172 358.115 472.565 356.538C473.922 354.961 475.957 354.173 478.67 354.173C482.887 354.173 485.838 355.713 487.525 358.793C489.175 361.836 490 366.163 490 371.773V385.193H451.72V373.258C451.72 367.575 452.49 363.248 454.03 360.278C455.533 357.271 458.063 355.768 461.62 355.768C463.893 355.768 465.69 356.428 467.01 357.748C468.293 359.068 469.192 360.718 469.705 362.698ZM459.475 373.863H466.515V371.938C466.515 370.215 466.24 369.005 465.69 368.308C465.103 367.611 464.132 367.263 462.775 367.263C461.638 367.263 460.813 367.648 460.3 368.418C459.75 369.151 459.475 370.416 459.475 372.213V373.863ZM482.025 371.663C482.025 369.756 481.732 368.308 481.145 367.318C480.558 366.328 479.477 365.833 477.9 365.833C476.433 365.833 475.37 366.291 474.71 367.208C474.013 368.088 473.665 369.426 473.665 371.223V373.863H482.025V371.663ZM451.72 339.649H481.31V325.184L490 326.339V350.979H451.72V339.649ZM451.72 297.109L459.585 298.264V310.914H466.735V299.804H474.38V310.914H482.08V297.384H490V322.244H451.72V297.109ZM477.02 262.43C479.697 262.43 482.098 263.016 484.225 264.19C486.352 265.363 488.038 267.141 489.285 269.525C490.495 271.908 491.1 274.841 491.1 278.325C491.1 283.568 489.835 287.528 487.305 290.205C484.775 292.881 481.347 294.22 477.02 294.22H451.72V282.89H476.69C478.853 282.89 480.448 282.541 481.475 281.845C482.465 281.111 482.96 279.938 482.96 278.325C482.96 276.711 482.465 275.556 481.475 274.86C480.448 274.126 478.853 273.76 476.69 273.76H451.72V262.43H477.02ZM490 246.189H451.72V221.879L459.585 223.034V234.859H467.945V224.464H475.81V234.859H490V246.189ZM450.62 203.959C450.62 198.239 452.398 193.839 455.955 190.759C459.475 187.642 464.425 186.084 470.805 186.084C474.948 186.084 478.542 186.781 481.585 188.174C484.628 189.567 486.975 191.602 488.625 194.279C490.275 196.956 491.1 200.182 491.1 203.959C491.1 209.679 489.322 214.097 485.765 217.214C482.172 220.294 477.185 221.834 470.805 221.834C466.662 221.834 463.087 221.137 460.08 219.744C457.037 218.351 454.708 216.316 453.095 213.639C451.445 210.962 450.62 207.736 450.62 203.959ZM458.65 203.959C458.65 206.122 459.585 207.681 461.455 208.634C463.288 209.587 466.405 210.064 470.805 210.064C475.205 210.064 478.358 209.587 480.265 208.634C482.135 207.681 483.07 206.122 483.07 203.959C483.07 201.759 482.135 200.201 480.265 199.284C478.395 198.331 475.242 197.854 470.805 197.854C466.405 197.854 463.288 198.331 461.455 199.284C459.585 200.237 458.65 201.796 458.65 203.959ZM490 151.52V165.71L462.06 174.07L463.27 173.905C465.947 173.502 468.403 173.19 470.64 172.97C472.84 172.714 475.333 172.585 478.12 172.585H490V182.595H451.72V168.68L479.77 159.99L478.615 160.155C476.085 160.595 473.738 160.944 471.575 161.2C469.375 161.42 466.845 161.53 463.985 161.53H451.72V151.52H490ZM450.62 129.775C450.62 125.045 452.123 120.939 455.13 117.455L461.29 122.68C460.483 123.78 459.86 124.862 459.42 125.925C458.98 126.952 458.76 128.052 458.76 129.225C458.76 131.462 459.768 133.204 461.785 134.45C463.802 135.66 466.79 136.265 470.75 136.265C474.71 136.265 477.68 135.642 479.66 134.395C481.603 133.149 482.575 131.37 482.575 129.06C482.575 127.814 482.318 126.659 481.805 125.595C481.292 124.495 480.522 123.285 479.495 121.965L485.765 117.015C487.305 118.555 488.588 120.425 489.615 122.625C490.605 124.789 491.1 127.117 491.1 129.61C491.1 133.387 490.33 136.65 488.79 139.4C487.213 142.15 484.903 144.277 481.86 145.78C478.817 147.284 475.113 148.035 470.75 148.035C466.57 148.035 462.977 147.265 459.97 145.725C456.927 144.185 454.617 142.04 453.04 139.29C451.427 136.54 450.62 133.369 450.62 129.775ZM451.72 89.5161L459.585 90.6711V103.321H466.735V92.2111H474.38V103.321H482.08V89.7911H490V114.651H451.72V89.5161ZM435.88 97.5461L443.8 93.6961L448.805 107.666L443.36 110.416L435.88 97.5461Z" fill="black"/>
<path d="M659.52 296.4V261.475H665.405V296.4H659.52ZM638.455 277.535V271.43H647.035C648.41 271.43 648.63 271.32 648.63 270.275C648.63 269.835 648.63 268.02 648.63 267.47C648.63 266.535 648.08 266.315 644.395 266.15C645.275 264.995 646.155 262.52 646.54 260.925C652.37 261.53 653.91 263.07 653.91 266.755C653.91 267.8 653.91 270.33 653.91 271.265C653.91 276.435 652.26 277.535 647.145 277.535H638.455ZM633.56 296.29V261.42H643.13V267.415H639.005V290.57H644.615V296.29H633.56ZM654.02 282.54V276.05H682.785V282.54H654.02ZM638.455 286.555V280.395C647.805 280.945 653.085 282.87 655.89 294.255C654.405 294.75 652.15 296.29 650.995 297.39C649.07 288.04 645.55 286.885 638.455 286.555ZM662.655 274.015C667.77 271.21 672.995 265.71 675.69 260.265C676.9 261.805 679.375 263.895 681.08 264.94C677.56 270.44 670.96 275.72 664.36 278.8L662.655 274.015ZM661.995 283.97L663.645 278.855C671.18 282.32 677.78 288.315 681.245 295.3C679.76 296.235 677.45 298.105 676.24 299.425C673.545 292.88 667.99 286.995 661.995 283.97ZM636.64 310.095L631.855 306.3C633.23 303 635.65 298.655 637.575 296.51L642.91 300.525C640.93 302.505 638.29 306.685 636.64 310.095ZM651.82 312.405L646.65 309.05C647.75 305.64 649.785 301.185 651.49 298.93L657.21 302.505C655.395 304.54 653.14 308.94 651.82 312.405ZM678.605 311.03C674.37 308.445 667.385 304.705 660.95 301.845L664.855 296.73C670.74 299.315 677.12 302.34 682.565 305.255L678.605 311.03ZM634.385 256.14V206.805H639.885V256.14H634.385ZM631.305 244.48V237.935H642.635V244.48H631.305ZM631.305 224.9V218.3H642.8V224.9H631.305ZM647.2 227.595V208.895H652.645V227.595H647.2ZM676.185 256.69V206.2H681.74V256.69H676.185ZM664.25 250.805V211.59H677.67V218.025H669.31V223.25H677.67V228.805H669.31V234.03H677.67V239.53H669.31V244.7H677.67V250.805H664.25ZM642.8 227.925L644.065 221.71C650.665 223.36 656.99 226.22 660.95 229.685C659.96 230.84 658.2 233.48 657.43 234.965C653.91 231.665 648.465 229.135 642.8 227.925ZM654.955 223.195L652.48 218.19C654.955 215.825 658.42 213.515 660.84 212.58L663.7 217.86C661.225 218.685 657.54 220.94 654.955 223.195ZM643.625 242.445V236.01H662.655V242.445H643.625ZM645.275 252.51V246.35H661.555V252.51H645.275ZM658.475 192.285V160.165H664.415V192.285H658.475ZM647.805 179.415V172.76H661.5V179.415H647.805ZM645.385 192.615V155.38H666.615V162.145H651.27V192.615H645.385ZM645.385 195.86V189.205H672.225C675.8 189.205 676.35 188.215 676.35 182.275C676.35 179.47 676.35 167.15 676.35 163.96C676.35 158.845 675.25 157.965 669.145 157.25C670.19 155.6 671.18 152.74 671.51 150.815C679.98 151.97 682.455 154.335 682.455 163.465C682.455 166.105 682.455 179.8 682.455 182.22C682.455 192.725 680.42 195.86 672.28 195.86H645.385ZM635.045 186.235V169.405H640.71V189.095L635.045 186.235ZM631.03 187.115L632.405 179.965C639.775 184.31 647.145 190.03 653.25 198.225C651.71 199.27 649.455 201.47 648.41 202.955C643.405 195.475 636.75 190.085 631.03 187.115ZM635.045 172.375V170.89L634.66 169.625L637.63 165.17C642.36 167.59 647.75 171.22 651.105 174.465C649.73 175.4 647.695 177.38 646.705 178.645C643.955 176.17 639.335 173.53 636.31 172.375H635.045Z" fill="black"/>
<mask id="path-33-inside-5_489_236" fill="white">
<rect x="62" width="53" height="30" rx="1"/>
</mask>
<rect x="62" width="53" height="30" rx="1" stroke="#FDCF07" stroke-width="6" mask="url(#path-33-inside-5_489_236)"/>
<mask id="path-34-inside-6_489_236" fill="white">
<rect x="251" width="53" height="30" rx="1"/>
</mask>
<rect x="251" width="53" height="30" rx="1" stroke="#FDCF07" stroke-width="6" mask="url(#path-34-inside-6_489_236)"/>
<mask id="path-35-inside-7_489_236" fill="white">
<rect x="442" width="53" height="30" rx="1"/>
</mask>
<rect x="442" width="53" height="30" rx="1" stroke="#FDCF07" stroke-width="6" mask="url(#path-35-inside-7_489_236)"/>
<mask id="path-36-inside-8_489_236" fill="white">
<rect x="633" width="53" height="30" rx="1"/>
</mask>
<rect x="633" width="53" height="30" rx="1" stroke="#FDCF07" stroke-width="6" mask="url(#path-36-inside-8_489_236)"/>
<path d="M97.5 15C97.5 18.9974 93.847 22.5 89 22.5C84.153 22.5 80.5 18.9974 80.5 15C80.5 11.0026 84.153 7.5 89 7.5C93.847 7.5 97.5 11.0026 97.5 15Z" stroke="#FDCF07" stroke-width="3"/>
<path d="M286.5 15C286.5 18.9974 282.847 22.5 278 22.5C273.153 22.5 269.5 18.9974 269.5 15C269.5 11.0026 273.153 7.5 278 7.5C282.847 7.5 286.5 11.0026 286.5 15Z" stroke="#FDCF07" stroke-width="3"/>
<path d="M477.5 15C477.5 18.9974 473.847 22.5 469 22.5C464.153 22.5 460.5 18.9974 460.5 15C460.5 11.0026 464.153 7.5 469 7.5C473.847 7.5 477.5 11.0026 477.5 15Z" stroke="#FDCF07" stroke-width="3"/>
<path d="M668.5 15C668.5 18.9974 664.847 22.5 660 22.5C655.153 22.5 651.5 18.9974 651.5 15C651.5 11.0026 655.153 7.5 660 7.5C664.847 7.5 668.5 11.0026 668.5 15Z" stroke="#FDCF07" stroke-width="3"/>
<path d="M52.4754 32.8754C53.277 31.8337 53.8258 31.5466 54.1569 31.5H122.34C122.648 31.5 122.77 31.5274 122.826 31.5495C123.355 31.7601 124.009 32.2839 124.812 33.2807C125.6 34.2585 126.425 35.5538 127.341 37.1195C128.702 39.4454 126.951 42.5 124.205 42.5H53.0487C50.4271 42.5 48.7006 39.7152 49.8428 37.4186C50.8183 35.4571 51.6674 33.9254 52.4754 32.8754Z" fill="#FDCF07" stroke="black" stroke-width="3"/>
<path d="M241.475 32.8754C242.277 31.8337 242.826 31.5466 243.157 31.5H311.34C311.648 31.5 311.77 31.5274 311.826 31.5495C312.355 31.7601 313.009 32.2839 313.812 33.2807C314.6 34.2585 315.425 35.5538 316.341 37.1195C317.702 39.4454 315.951 42.5 313.205 42.5H242.049C239.427 42.5 237.701 39.7152 238.843 37.4186C239.818 35.4571 240.667 33.9254 241.475 32.8754Z" fill="#FDCF07" stroke="black" stroke-width="3"/>
<path d="M432.475 32.8754C433.277 31.8337 433.826 31.5466 434.157 31.5H502.34C502.648 31.5 502.77 31.5274 502.826 31.5495C503.355 31.7601 504.009 32.2839 504.812 33.2807C505.6 34.2585 506.425 35.5538 507.341 37.1195C508.702 39.4454 506.951 42.5 504.205 42.5H433.049C430.427 42.5 428.701 39.7152 429.843 37.4186C430.818 35.4571 431.667 33.9254 432.475 32.8754Z" fill="#FDCF07" stroke="black" stroke-width="3"/>
<path d="M623.475 32.8754C624.277 31.8337 624.826 31.5466 625.157 31.5H693.34C693.648 31.5 693.77 31.5274 693.826 31.5495C694.355 31.7601 695.009 32.2839 695.812 33.2807C696.6 34.2585 697.425 35.5538 698.341 37.1195C699.702 39.4454 697.951 42.5 695.205 42.5H624.049C621.427 42.5 619.701 39.7152 620.843 37.4186C621.818 35.4571 622.667 33.9254 623.475 32.8754Z" fill="#FDCF07" stroke="black" stroke-width="3"/>
<path d="M35.0746 42.5H141.239C143.41 42.8431 145.583 44.5426 148.344 47.4983C150.367 49.6634 148.729 53.5 145.606 53.5H31.111C28.1494 53.5 26.496 50.0436 28.2413 47.8393C29.5939 46.1309 30.7957 44.8016 31.9529 43.8869C33.0827 42.9938 34.0878 42.5613 35.0746 42.5Z" fill="#FDCF07" stroke="black" stroke-width="3"/>
<path d="M224.075 42.5H330.239C332.41 42.8431 334.583 44.5426 337.344 47.4983C339.367 49.6634 337.729 53.5 334.606 53.5H220.111C217.149 53.5 215.496 50.0436 217.241 47.8393C218.594 46.1309 219.796 44.8016 220.953 43.8869C222.083 42.9938 223.088 42.5613 224.075 42.5Z" fill="#FDCF07" stroke="black" stroke-width="3"/>
<path d="M415.075 42.5H521.239C523.41 42.8431 525.583 44.5426 528.344 47.4983C530.367 49.6634 528.729 53.5 525.606 53.5H411.111C408.149 53.5 406.496 50.0436 408.241 47.8393C409.594 46.1309 410.796 44.8016 411.953 43.8869C413.083 42.9938 414.088 42.5613 415.075 42.5Z" fill="#FDCF07" stroke="black" stroke-width="3"/>
<path d="M606.075 42.5H712.239C714.41 42.8431 716.583 44.5426 719.344 47.4983C721.367 49.6634 719.729 53.5 716.606 53.5H602.111C599.149 53.5 597.496 50.0436 599.241 47.8393C600.594 46.1309 601.796 44.8016 602.953 43.8869C604.083 42.9938 605.088 42.5613 606.075 42.5Z" fill="#FDCF07" stroke="black" stroke-width="3"/>
<rect x="5.5" y="53.5" width="166" height="16" rx="3.5" fill="#FDCF07" stroke="black" stroke-width="3"/>
<rect x="194.5" y="53.5" width="166" height="16" rx="3.5" fill="#FDCF07" stroke="black" stroke-width="3"/>
<rect x="385.5" y="53.5" width="166" height="16" rx="3.5" fill="#FDCF07" stroke="black" stroke-width="3"/>
<rect x="576.5" y="53.5" width="166" height="16" rx="3.5" fill="#FDCF07" stroke="black" stroke-width="3"/>
<path d="M10.78 72.7445C10.946 71.6435 11.1023 70.8388 11.2427 70.3137C11.6346 70.2903 12.182 70.2644 12.8954 70.2381C14.2255 70.189 16.034 70.1407 18.2571 70.0937C22.7019 69.9999 28.7829 69.9118 35.9649 69.8338C50.3279 69.6778 69.0807 69.5619 87.9259 69.5186C106.771 69.4753 125.705 69.5046 140.429 69.6389C147.793 69.7061 154.097 69.7995 158.811 69.923C161.168 69.9848 163.119 70.0539 164.602 70.1305C165.713 70.1879 166.511 70.2476 167.013 70.3039C167.032 70.3472 167.053 70.3972 167.076 70.4547C167.274 70.9557 167.496 71.7565 167.728 72.8903C168.19 75.1395 168.645 78.4461 169.086 82.6962C169.965 91.1823 170.772 103.269 171.479 117.816C172.892 146.902 173.902 185.738 174.305 225.085C174.709 264.433 174.506 304.272 173.497 335.365C172.992 350.915 172.287 364.257 171.356 374.249C170.891 379.248 170.372 383.382 169.799 386.524C169.513 388.096 169.217 389.397 168.915 390.422C168.606 391.47 168.316 392.14 168.078 392.51C167.552 393.329 166.579 394.197 165.058 395.068C163.55 395.93 161.594 396.743 159.223 397.495C154.481 399 148.236 400.214 140.943 401.144C126.368 403.004 107.816 403.71 89.1928 403.447C70.5732 403.185 51.9364 401.956 37.1995 399.962C29.8272 398.965 23.4665 397.781 18.5854 396.443C16.1442 395.774 14.1044 395.074 12.5067 394.355C10.8842 393.624 9.83046 392.922 9.2532 392.3C9.07792 392.112 8.79286 391.64 8.46483 390.714C8.14981 389.824 7.8398 388.647 7.5407 387.179C6.94301 384.247 6.41486 380.288 5.95546 375.427C5.03737 365.712 4.40622 352.532 4.01402 337.053C3.22981 306.105 3.40317 266.071 4.12711 226.415C4.85101 186.761 6.12507 147.504 7.54068 118.115C8.24861 103.417 8.99131 91.2015 9.71718 82.6418C10.0805 78.3571 10.4375 75.0153 10.78 72.7445ZM166.891 70.0694C166.892 70.0704 166.892 70.0716 166.893 70.073C166.883 70.061 166.883 70.0583 166.891 70.0694Z" fill="#FDCF07" stroke="black" stroke-width="3"/>
<path d="M199.78 72.7445C199.946 71.6435 200.102 70.8388 200.243 70.3137C200.635 70.2903 201.182 70.2644 201.895 70.2381C203.226 70.189 205.034 70.1407 207.257 70.0937C211.702 69.9999 217.783 69.9118 224.965 69.8338C239.328 69.6778 258.081 69.5619 276.926 69.5186C295.771 69.4753 314.705 69.5046 329.429 69.6389C336.793 69.7061 343.097 69.7995 347.811 69.923C350.168 69.9848 352.119 70.0539 353.602 70.1305C354.713 70.1879 355.511 70.2476 356.013 70.3039C356.032 70.3472 356.053 70.3972 356.076 70.4547C356.274 70.9557 356.496 71.7565 356.728 72.8903C357.19 75.1395 357.645 78.4461 358.086 82.6962C358.965 91.1823 359.772 103.269 360.479 117.816C361.892 146.902 362.902 185.738 363.305 225.085C363.709 264.433 363.506 304.272 362.497 335.365C361.992 350.915 361.287 364.257 360.356 374.249C359.891 379.248 359.372 383.382 358.799 386.524C358.513 388.096 358.217 389.397 357.915 390.422C357.606 391.47 357.316 392.14 357.078 392.51C356.552 393.329 355.579 394.197 354.058 395.068C352.55 395.93 350.594 396.743 348.223 397.495C343.481 399 337.236 400.214 329.943 401.144C315.368 403.004 296.816 403.71 278.193 403.447C259.573 403.185 240.936 401.956 226.199 399.962C218.827 398.965 212.466 397.781 207.585 396.443C205.144 395.774 203.104 395.074 201.507 394.355C199.884 393.624 198.83 392.922 198.253 392.3C198.078 392.112 197.793 391.64 197.465 390.714C197.15 389.824 196.84 388.647 196.541 387.179C195.943 384.247 195.415 380.288 194.955 375.427C194.037 365.712 193.406 352.532 193.014 337.053C192.23 306.105 192.403 266.071 193.127 226.415C193.851 186.761 195.125 147.504 196.541 118.115C197.249 103.417 197.991 91.2015 198.717 82.6418C199.081 78.3571 199.438 75.0153 199.78 72.7445ZM355.891 70.0694C355.892 70.0704 355.892 70.0716 355.893 70.073C355.883 70.061 355.883 70.0583 355.891 70.0694Z" fill="#FDCF07" stroke="black" stroke-width="3"/>
<path d="M390.78 72.7445C390.946 71.6435 391.102 70.8388 391.243 70.3137C391.635 70.2903 392.182 70.2644 392.895 70.2381C394.226 70.189 396.034 70.1407 398.257 70.0937C402.702 69.9999 408.783 69.9118 415.965 69.8338C430.328 69.6778 449.081 69.5619 467.926 69.5186C486.771 69.4753 505.705 69.5046 520.429 69.6389C527.793 69.7061 534.097 69.7995 538.811 69.923C541.168 69.9848 543.119 70.0539 544.602 70.1305C545.713 70.1879 546.511 70.2476 547.013 70.3039C547.032 70.3472 547.053 70.3972 547.076 70.4547C547.274 70.9557 547.496 71.7565 547.728 72.8903C548.19 75.1395 548.645 78.4461 549.086 82.6962C549.965 91.1823 550.772 103.269 551.479 117.816C552.892 146.902 553.902 185.738 554.305 225.085C554.709 264.433 554.506 304.272 553.497 335.365C552.992 350.915 552.287 364.257 551.356 374.249C550.891 379.248 550.372 383.382 549.799 386.524C549.513 388.096 549.217 389.397 548.915 390.422C548.606 391.47 548.316 392.14 548.078 392.51C547.552 393.329 546.579 394.197 545.058 395.068C543.55 395.93 541.594 396.743 539.223 397.495C534.481 399 528.236 400.214 520.943 401.144C506.368 403.004 487.816 403.71 469.193 403.447C450.573 403.185 431.936 401.956 417.199 399.962C409.827 398.965 403.466 397.781 398.585 396.443C396.144 395.774 394.104 395.074 392.507 394.355C390.884 393.624 389.83 392.922 389.253 392.3C389.078 392.112 388.793 391.64 388.465 390.714C388.15 389.824 387.84 388.647 387.541 387.179C386.943 384.247 386.415 380.288 385.955 375.427C385.037 365.712 384.406 352.532 384.014 337.053C383.23 306.105 383.403 266.071 384.127 226.415C384.851 186.761 386.125 147.504 387.541 118.115C388.249 103.417 388.991 91.2015 389.717 82.6418C390.081 78.3571 390.438 75.0153 390.78 72.7445ZM546.891 70.0694C546.892 70.0704 546.892 70.0716 546.893 70.073C546.883 70.061 546.883 70.0583 546.891 70.0694Z" fill="#FDCF07" stroke="black" stroke-width="3"/>
<path d="M581.78 72.7445C581.946 71.6435 582.102 70.8388 582.243 70.3137C582.635 70.2903 583.182 70.2644 583.895 70.2381C585.226 70.189 587.034 70.1407 589.257 70.0937C593.702 69.9999 599.783 69.9118 606.965 69.8338C621.328 69.6778 640.081 69.5619 658.926 69.5186C677.771 69.4753 696.705 69.5046 711.429 69.6389C718.793 69.7061 725.097 69.7995 729.811 69.923C732.168 69.9848 734.119 70.0539 735.602 70.1305C736.713 70.1879 737.511 70.2476 738.013 70.3039C738.032 70.3472 738.053 70.3972 738.076 70.4547C738.274 70.9557 738.496 71.7565 738.728 72.8903C739.19 75.1395 739.645 78.4461 740.086 82.6962C740.965 91.1823 741.772 103.269 742.479 117.816C743.892 146.902 744.902 185.738 745.305 225.085C745.709 264.433 745.506 304.272 744.497 335.365C743.992 350.915 743.287 364.257 742.356 374.249C741.891 379.248 741.372 383.382 740.799 386.524C740.513 388.096 740.217 389.397 739.915 390.422C739.606 391.47 739.316 392.14 739.078 392.51C738.552 393.329 737.579 394.197 736.058 395.068C734.55 395.93 732.594 396.743 730.223 397.495C725.481 399 719.236 400.214 711.943 401.144C697.368 403.004 678.816 403.71 660.193 403.447C641.573 403.185 622.936 401.956 608.199 399.962C600.827 398.965 594.466 397.781 589.585 396.443C587.144 395.774 585.104 395.074 583.507 394.355C581.884 393.624 580.83 392.922 580.253 392.3C580.078 392.112 579.793 391.64 579.465 390.714C579.15 389.824 578.84 388.647 578.541 387.179C577.943 384.247 577.415 380.288 576.955 375.427C576.037 365.712 575.406 352.532 575.014 337.053C574.23 306.105 574.403 266.071 575.127 226.415C575.851 186.761 577.125 147.504 578.541 118.115C579.249 103.417 579.991 91.2015 580.717 82.6418C581.081 78.3571 581.438 75.0153 581.78 72.7445ZM737.891 70.0694C737.892 70.0704 737.892 70.0716 737.893 70.073C737.883 70.061 737.883 70.0583 737.891 70.0694Z" fill="#FDCF07" stroke="black" stroke-width="3"/>
<path d="M469.705 362.698C470.218 360.168 471.172 358.115 472.565 356.538C473.922 354.961 475.957 354.173 478.67 354.173C482.887 354.173 485.838 355.713 487.525 358.793C489.175 361.836 490 366.163 490 371.773V385.193H451.72V373.258C451.72 367.575 452.49 363.248 454.03 360.278C455.533 357.271 458.063 355.768 461.62 355.768C463.893 355.768 465.69 356.428 467.01 357.748C468.293 359.068 469.192 360.718 469.705 362.698ZM459.475 373.863H466.515V371.938C466.515 370.215 466.24 369.005 465.69 368.308C465.103 367.611 464.132 367.263 462.775 367.263C461.638 367.263 460.813 367.648 460.3 368.418C459.75 369.151 459.475 370.416 459.475 372.213V373.863ZM482.025 371.663C482.025 369.756 481.732 368.308 481.145 367.318C480.558 366.328 479.477 365.833 477.9 365.833C476.433 365.833 475.37 366.291 474.71 367.208C474.013 368.088 473.665 369.426 473.665 371.223V373.863H482.025V371.663ZM451.72 339.649H481.31V325.184L490 326.339V350.979H451.72V339.649ZM451.72 297.109L459.585 298.264V310.914H466.735V299.804H474.38V310.914H482.08V297.384H490V322.244H451.72V297.109ZM477.02 262.43C479.697 262.43 482.098 263.016 484.225 264.19C486.352 265.363 488.038 267.141 489.285 269.525C490.495 271.908 491.1 274.841 491.1 278.325C491.1 283.568 489.835 287.528 487.305 290.205C484.775 292.881 481.347 294.22 477.02 294.22H451.72V282.89H476.69C478.853 282.89 480.448 282.541 481.475 281.845C482.465 281.111 482.96 279.938 482.96 278.325C482.96 276.711 482.465 275.556 481.475 274.86C480.448 274.126 478.853 273.76 476.69 273.76H451.72V262.43H477.02ZM490 246.189H451.72V221.879L459.585 223.034V234.859H467.945V224.464H475.81V234.859H490V246.189ZM450.62 203.959C450.62 198.239 452.398 193.839 455.955 190.759C459.475 187.642 464.425 186.084 470.805 186.084C474.948 186.084 478.542 186.781 481.585 188.174C484.628 189.567 486.975 191.602 488.625 194.279C490.275 196.956 491.1 200.182 491.1 203.959C491.1 209.679 489.322 214.097 485.765 217.214C482.172 220.294 477.185 221.834 470.805 221.834C466.662 221.834 463.087 221.137 460.08 219.744C457.037 218.351 454.708 216.316 453.095 213.639C451.445 210.962 450.62 207.736 450.62 203.959ZM458.65 203.959C458.65 206.122 459.585 207.681 461.455 208.634C463.288 209.587 466.405 210.064 470.805 210.064C475.205 210.064 478.358 209.587 480.265 208.634C482.135 207.681 483.07 206.122 483.07 203.959C483.07 201.759 482.135 200.201 480.265 199.284C478.395 198.331 475.242 197.854 470.805 197.854C466.405 197.854 463.288 198.331 461.455 199.284C459.585 200.237 458.65 201.796 458.65 203.959ZM490 151.52V165.71L462.06 174.07L463.27 173.905C465.947 173.502 468.403 173.19 470.64 172.97C472.84 172.714 475.333 172.585 478.12 172.585H490V182.595H451.72V168.68L479.77 159.99L478.615 160.155C476.085 160.595 473.738 160.944 471.575 161.2C469.375 161.42 466.845 161.53 463.985 161.53H451.72V151.52H490ZM450.62 129.775C450.62 125.045 452.123 120.939 455.13 117.455L461.29 122.68C460.483 123.78 459.86 124.862 459.42 125.925C458.98 126.952 458.76 128.052 458.76 129.225C458.76 131.462 459.768 133.204 461.785 134.45C463.802 135.66 466.79 136.265 470.75 136.265C474.71 136.265 477.68 135.642 479.66 134.395C481.603 133.149 482.575 131.37 482.575 129.06C482.575 127.814 482.318 126.659 481.805 125.595C481.292 124.495 480.522 123.285 479.495 121.965L485.765 117.015C487.305 118.555 488.588 120.425 489.615 122.625C490.605 124.789 491.1 127.117 491.1 129.61C491.1 133.387 490.33 136.65 488.79 139.4C487.213 142.15 484.903 144.277 481.86 145.78C478.817 147.284 475.113 148.035 470.75 148.035C466.57 148.035 462.977 147.265 459.97 145.725C456.927 144.185 454.617 142.04 453.04 139.29C451.427 136.54 450.62 133.369 450.62 129.775ZM451.72 89.5161L459.585 90.6711V103.321H466.735V92.2111H474.38V103.321H482.08V89.7911H490V114.651H451.72V89.5161ZM435.88 97.5461L443.8 93.6961L448.805 107.666L443.36 110.416L435.88 97.5461Z" fill="black"/>
<path d="M68.72 357.256C68.72 351.096 70.095 346.165 72.845 342.461C75.5583 338.758 80.5083 336.906 87.695 336.906C94.7717 336.906 99.7583 338.685 102.655 342.241C105.552 345.798 107 350.583 107 356.596V369.521H68.72V357.256ZM76.695 358.191H99.025V355.936C99.025 354.176 98.6767 352.765 97.98 351.701C97.2833 350.638 96.1283 349.85 94.515 349.336C92.865 348.823 90.5917 348.566 87.695 348.566C84.835 348.566 82.6167 348.841 81.04 349.391C79.4267 349.905 78.3083 350.693 77.685 351.756C77.025 352.82 76.695 354.195 76.695 355.881V358.191ZM107 313.89L99.575 315.375V324.45L107 325.88V337.705L68.72 326.54V313.01L107 301.9V313.89ZM91.655 322.855V316.97L76.64 319.94L91.655 322.855ZM93.36 287.512V289.602H107V300.932H68.72V286.907C68.72 281.371 69.71 277.246 71.69 274.532C73.6333 271.819 76.695 270.462 80.875 270.462C83.2583 270.462 85.2383 270.994 86.815 272.057C88.3917 273.121 89.8767 274.844 91.27 277.227L107 267.877V280.417L93.36 287.512ZM85.77 289.602V286.632C85.77 285.092 85.3667 283.937 84.56 283.167C83.7533 282.397 82.525 282.012 80.875 282.012C77.9417 282.012 76.475 283.736 76.475 287.182V289.602H85.77ZM68.72 255.281H107V266.611H68.72L68.72 255.281ZM68.72 232.621L85.715 243.456L107 231.631V244.501L86.595 254.951L68.72 244.281V232.621ZM86.705 195.776C87.2183 193.246 88.1717 191.193 89.565 189.616C90.9217 188.04 92.9567 187.251 95.67 187.251C99.8867 187.251 102.838 188.791 104.525 191.871C106.175 194.915 107 199.241 107 204.851L107 218.271H68.72V206.336C68.72 200.653 69.49 196.326 71.03 193.356C72.5333 190.35 75.0633 188.846 78.62 188.846C80.8933 188.846 82.69 189.506 84.01 190.826C85.2933 192.146 86.1917 193.796 86.705 195.776ZM76.475 206.941H83.515V205.016C83.515 203.293 83.24 202.083 82.69 201.386C82.1033 200.69 81.1317 200.341 79.775 200.341C78.6383 200.341 77.8133 200.726 77.3 201.496C76.75 202.23 76.475 203.495 76.475 205.291V206.941ZM99.025 204.741C99.025 202.835 98.7317 201.386 98.145 200.396C97.5583 199.406 96.4767 198.911 94.9 198.911C93.4333 198.911 92.37 199.37 91.71 200.286C91.0133 201.166 90.665 202.505 90.665 204.301V206.941H99.025V204.741ZM68.72 172.727H98.31V158.262L107 159.417V184.057H68.72V172.727ZM94.02 125.478C96.6967 125.478 99.0983 126.065 101.225 127.238C103.352 128.412 105.038 130.19 106.285 132.573C107.495 134.957 108.1 137.89 108.1 141.373C108.1 146.617 106.835 150.577 104.305 153.253C101.775 155.93 98.3467 157.268 94.02 157.268H68.72V145.938H93.69C95.8533 145.938 97.4483 145.59 98.475 144.893C99.465 144.16 99.96 142.987 99.96 141.373C99.96 139.76 99.465 138.605 98.475 137.908C97.4483 137.175 95.8533 136.808 93.69 136.808H68.72V125.478H94.02ZM68.72 96.188L76.585 97.343V109.993H83.735V98.883H91.38V109.993H99.08L99.08 96.463H107L107 121.323H68.72V96.188Z" fill="black"/>
<path d="M266.95 331.842H282.295C285.54 331.842 287.08 333.162 287.08 335.637C287.08 339.377 282.13 343.942 278.5 343.942C276.355 343.942 274.925 342.952 274.925 339.597L275.035 339.542H266.95V345.702H260.79V310.942H266.95V316.002H295V323.702H266.95V331.842ZM292.195 292.727C291.15 291.132 289.94 290.197 288.62 290.197C286.915 290.197 285.65 291.627 285.65 294.982C285.65 298.942 287.245 301.087 289.885 301.087C293.185 301.087 295.165 297.402 297.97 288.987L303.965 292.232C300.775 303.397 296.265 308.732 289.995 308.732C286.915 308.732 284.605 307.632 282.955 305.707C281.14 307.797 279.16 308.787 277.015 308.787C272.56 308.787 270.14 305.377 270.14 299.217V292.452H266.95V311.757H260.79V279.802H266.95V284.862H276.025V298.062C276.025 300.262 276.795 301.252 278.17 301.252C278.94 301.252 279.655 300.867 280.315 300.097C279.93 298.447 279.71 296.577 279.71 294.597C279.71 286.127 283.725 282.607 288.345 282.607C291.205 282.607 293.57 283.762 295.825 286.457L292.195 292.727ZM291.315 257.999L296.21 263.279C291.15 269.219 286.805 273.619 283.01 276.314C280.645 278.074 278.885 278.789 277.015 278.789C274.705 278.789 273.22 277.194 273.22 274.719C273.22 272.849 273.99 271.309 275.42 269.659C274.21 267.899 272.615 267.129 270.47 267.129C269.205 267.129 267.995 267.349 266.95 267.734V280.604H260.79V255.524H266.95V260.144C268.215 259.759 269.7 259.484 271.57 259.484C276.96 259.484 280.37 262.839 282.46 268.229C285.43 265.204 288.345 261.794 291.315 257.999ZM266.95 244.392H295V252.092H266.95V256.327H260.79V239.332H266.95V244.392ZM260.79 228.075V193.425H266.95V198.485H295V206.185H280.645V214.325H281.855C285.1 214.325 286.585 215.7 286.585 218.175C286.585 221.805 281.69 226.37 278.06 226.37C275.915 226.37 274.485 225.435 274.485 222.08V206.185H266.95V228.075H260.79ZM266.95 182.302H295V190.002H266.95V194.237H260.79V190.057C254.96 191.432 251.88 193.577 251.88 196.932C251.88 199.517 253.42 200.727 255.895 200.727C257.71 200.727 259.525 200.067 261.175 199.242V206.722C258.975 207.767 256.72 208.372 254.63 208.372C249.24 208.372 245.72 204.632 245.72 198.197C245.72 189.067 251.88 185.162 260.79 183.017V177.242H266.95V182.302ZM266.95 178.07H260.79V136.71H266.95V141.77H295V149.415H277.675V149.47C277.675 152.495 279.985 154.42 285.375 155.135L283.67 162.45C281.8 162.23 280.15 161.79 278.72 161.185C278.17 162.065 277.785 163.11 277.785 164.32C277.785 166.96 279.435 168.445 281.91 168.445C285.1 168.445 287.465 166.08 290.655 159.7L296.265 163.77C292.635 171.47 287.905 176.145 281.415 176.145C274.815 176.145 271.57 171.8 271.57 165.64C271.57 162.45 272.56 159.975 274.265 157.885C272.56 155.85 271.68 153.155 271.68 149.91C271.68 149.745 271.68 149.58 271.68 149.415H266.95V178.07ZM266.95 125.53H295V133.23H266.95V137.465H260.79V120.47H266.95V125.53Z" fill="black"/>
<path d="M659.52 296.4V261.475H665.405V296.4H659.52ZM638.455 277.535V271.43H647.035C648.41 271.43 648.63 271.32 648.63 270.275C648.63 269.835 648.63 268.02 648.63 267.47C648.63 266.535 648.08 266.315 644.395 266.15C645.275 264.995 646.155 262.52 646.54 260.925C652.37 261.53 653.91 263.07 653.91 266.755C653.91 267.8 653.91 270.33 653.91 271.265C653.91 276.435 652.26 277.535 647.145 277.535H638.455ZM633.56 296.29V261.42H643.13V267.415H639.005V290.57H644.615V296.29H633.56ZM654.02 282.54V276.05H682.785V282.54H654.02ZM638.455 286.555V280.395C647.805 280.945 653.085 282.87 655.89 294.255C654.405 294.75 652.15 296.29 650.995 297.39C649.07 288.04 645.55 286.885 638.455 286.555ZM662.655 274.015C667.77 271.21 672.995 265.71 675.69 260.265C676.9 261.805 679.375 263.895 681.08 264.94C677.56 270.44 670.96 275.72 664.36 278.8L662.655 274.015ZM661.995 283.97L663.645 278.855C671.18 282.32 677.78 288.315 681.245 295.3C679.76 296.235 677.45 298.105 676.24 299.425C673.545 292.88 667.99 286.995 661.995 283.97ZM636.64 310.095L631.855 306.3C633.23 303 635.65 298.655 637.575 296.51L642.91 300.525C640.93 302.505 638.29 306.685 636.64 310.095ZM651.82 312.405L646.65 309.05C647.75 305.64 649.785 301.185 651.49 298.93L657.21 302.505C655.395 304.54 653.14 308.94 651.82 312.405ZM678.605 311.03C674.37 308.445 667.385 304.705 660.95 301.845L664.855 296.73C670.74 299.315 677.12 302.34 682.565 305.255L678.605 311.03ZM634.385 256.14V206.805H639.885V256.14H634.385ZM631.305 244.48V237.935H642.635V244.48H631.305ZM631.305 224.9V218.3H642.8V224.9H631.305ZM647.2 227.595V208.895H652.645V227.595H647.2ZM676.185 256.69V206.2H681.74V256.69H676.185ZM664.25 250.805V211.59H677.67V218.025H669.31V223.25H677.67V228.805H669.31V234.03H677.67V239.53H669.31V244.7H677.67V250.805H664.25ZM642.8 227.925L644.065 221.71C650.665 223.36 656.99 226.22 660.95 229.685C659.96 230.84 658.2 233.48 657.43 234.965C653.91 231.665 648.465 229.135 642.8 227.925ZM654.955 223.195L652.48 218.19C654.955 215.825 658.42 213.515 660.84 212.58L663.7 217.86C661.225 218.685 657.54 220.94 654.955 223.195ZM643.625 242.445V236.01H662.655V242.445H643.625ZM645.275 252.51V246.35H661.555V252.51H645.275ZM658.475 192.285V160.165H664.415V192.285H658.475ZM647.805 179.415V172.76H661.5V179.415H647.805ZM645.385 192.615V155.38H666.615V162.145H651.27V192.615H645.385ZM645.385 195.86V189.205H672.225C675.8 189.205 676.35 188.215 676.35 182.275C676.35 179.47 676.35 167.15 676.35 163.96C676.35 158.845 675.25 157.965 669.145 157.25C670.19 155.6 671.18 152.74 671.51 150.815C679.98 151.97 682.455 154.335 682.455 163.465C682.455 166.105 682.455 179.8 682.455 182.22C682.455 192.725 680.42 195.86 672.28 195.86H645.385ZM635.045 186.235V169.405H640.71V189.095L635.045 186.235ZM631.03 187.115L632.405 179.965C639.775 184.31 647.145 190.03 653.25 198.225C651.71 199.27 649.455 201.47 648.41 202.955C643.405 195.475 636.75 190.085 631.03 187.115ZM635.045 172.375V170.89L634.66 169.625L637.63 165.17C642.36 167.59 647.75 171.22 651.105 174.465C649.73 175.4 647.695 177.38 646.705 178.645C643.955 176.17 639.335 173.53 636.31 172.375H635.045Z" fill="black"/>
<path d="M10.7033 395.321C72.5363 407.033 108.705 406.938 168.602 395.402C170.467 395.043 172.285 396.216 172.714 398.044L175.362 409.322C175.812 411.242 174.577 413.158 172.644 413.537C110.507 425.73 72.1922 425.248 5.84447 413.521C3.77505 413.156 2.49448 411.049 3.12204 409.044L6.66776 397.717C7.19772 396.023 8.93776 394.986 10.7033 395.321Z" fill="#FDCF07" stroke="black" stroke-width="3"/>
<path d="M199.703 395.321C261.536 407.033 297.705 406.938 357.602 395.402C359.467 395.043 361.285 396.216 361.714 398.044L364.362 409.322C364.812 411.242 363.577 413.158 361.644 413.537C299.507 425.73 261.192 425.248 194.844 413.521C192.775 413.156 191.494 411.049 192.122 409.044L195.668 397.717C196.198 396.023 197.938 394.986 199.703 395.321Z" fill="#FDCF07" stroke="black" stroke-width="3"/>
<path d="M390.703 395.321C452.536 407.033 488.705 406.938 548.602 395.402C550.467 395.043 552.285 396.216 552.714 398.044L555.362 409.322C555.812 411.242 554.577 413.158 552.644 413.537C490.507 425.73 452.192 425.248 385.844 413.521C383.775 413.156 382.494 411.049 383.122 409.044L386.668 397.717C387.198 396.023 388.938 394.986 390.703 395.321Z" fill="#FDCF07" stroke="black" stroke-width="3"/>
<path d="M581.703 395.321C643.536 407.033 679.705 406.938 739.602 395.402C741.467 395.043 743.285 396.216 743.714 398.044L746.362 409.322C746.812 411.242 745.577 413.158 743.644 413.537C681.507 425.73 643.192 425.248 576.844 413.521C574.775 413.156 573.494 411.049 574.122 409.044L577.668 397.717C578.198 396.023 579.938 394.986 581.703 395.321Z" fill="#FDCF07" stroke="black" stroke-width="3"/>
<mask id="path-65-inside-9_489_236" fill="white">
<rect x="62" width="53" height="30" rx="1"/>
</mask>
<rect x="62" width="53" height="30" rx="1" stroke="#FDCF07" stroke-width="6" mask="url(#path-65-inside-9_489_236)"/>
<mask id="path-66-inside-10_489_236" fill="white">
<rect x="62" width="53" height="30" rx="1"/>
</mask>
<rect x="62" width="53" height="30" rx="1" stroke="#FDCF07" stroke-width="6" mask="url(#path-66-inside-10_489_236)"/>
<mask id="path-67-inside-11_489_236" fill="white">
<rect x="251" width="53" height="30" rx="1"/>
</mask>
<rect x="251" width="53" height="30" rx="1" stroke="#FDCF07" stroke-width="6" mask="url(#path-67-inside-11_489_236)"/>
<mask id="path-68-inside-12_489_236" fill="white">
<rect x="251" width="53" height="30" rx="1"/>
</mask>
<rect x="251" width="53" height="30" rx="1" stroke="#FDCF07" stroke-width="6" mask="url(#path-68-inside-12_489_236)"/>
<mask id="path-69-inside-13_489_236" fill="white">
<rect x="442" width="53" height="30" rx="1"/>
</mask>
<rect x="442" width="53" height="30" rx="1" stroke="#FDCF07" stroke-width="6" mask="url(#path-69-inside-13_489_236)"/>
<mask id="path-70-inside-14_489_236" fill="white">
<rect x="442" width="53" height="30" rx="1"/>
</mask>
<rect x="442" width="53" height="30" rx="1" stroke="#FDCF07" stroke-width="6" mask="url(#path-70-inside-14_489_236)"/>
<mask id="path-71-inside-15_489_236" fill="white">
<rect x="633" width="53" height="30" rx="1"/>
</mask>
<rect x="633" width="53" height="30" rx="1" stroke="#FDCF07" stroke-width="6" mask="url(#path-71-inside-15_489_236)"/>
<mask id="path-72-inside-16_489_236" fill="white">
<rect x="633" width="53" height="30" rx="1"/>
</mask>
<rect x="633" width="53" height="30" rx="1" stroke="#FDCF07" stroke-width="6" mask="url(#path-72-inside-16_489_236)"/>
<path d="M97.5 15C97.5 18.9974 93.847 22.5 89 22.5C84.153 22.5 80.5 18.9974 80.5 15C80.5 11.0026 84.153 7.5 89 7.5C93.847 7.5 97.5 11.0026 97.5 15Z" stroke="#FDCF07" stroke-width="3"/>
<path d="M97.5 15C97.5 18.9974 93.847 22.5 89 22.5C84.153 22.5 80.5 18.9974 80.5 15C80.5 11.0026 84.153 7.5 89 7.5C93.847 7.5 97.5 11.0026 97.5 15Z" stroke="#FDCF07" stroke-width="3"/>
<path d="M286.5 15C286.5 18.9974 282.847 22.5 278 22.5C273.153 22.5 269.5 18.9974 269.5 15C269.5 11.0026 273.153 7.5 278 7.5C282.847 7.5 286.5 11.0026 286.5 15Z" stroke="#FDCF07" stroke-width="3"/>
<path d="M286.5 15C286.5 18.9974 282.847 22.5 278 22.5C273.153 22.5 269.5 18.9974 269.5 15C269.5 11.0026 273.153 7.5 278 7.5C282.847 7.5 286.5 11.0026 286.5 15Z" stroke="#FDCF07" stroke-width="3"/>
<path d="M477.5 15C477.5 18.9974 473.847 22.5 469 22.5C464.153 22.5 460.5 18.9974 460.5 15C460.5 11.0026 464.153 7.5 469 7.5C473.847 7.5 477.5 11.0026 477.5 15Z" stroke="#FDCF07" stroke-width="3"/>
<path d="M477.5 15C477.5 18.9974 473.847 22.5 469 22.5C464.153 22.5 460.5 18.9974 460.5 15C460.5 11.0026 464.153 7.5 469 7.5C473.847 7.5 477.5 11.0026 477.5 15Z" stroke="#FDCF07" stroke-width="3"/>
<path d="M668.5 15C668.5 18.9974 664.847 22.5 660 22.5C655.153 22.5 651.5 18.9974 651.5 15C651.5 11.0026 655.153 7.5 660 7.5C664.847 7.5 668.5 11.0026 668.5 15Z" stroke="#FDCF07" stroke-width="3"/>
<path d="M668.5 15C668.5 18.9974 664.847 22.5 660 22.5C655.153 22.5 651.5 18.9974 651.5 15C651.5 11.0026 655.153 7.5 660 7.5C664.847 7.5 668.5 11.0026 668.5 15Z" stroke="#FDCF07" stroke-width="3"/>
<path d="M52.4754 32.8754C53.277 31.8337 53.8258 31.5466 54.1569 31.5H122.34C122.648 31.5 122.77 31.5274 122.826 31.5495C123.355 31.7601 124.009 32.2839 124.812 33.2807C125.6 34.2585 126.425 35.5538 127.341 37.1195C128.702 39.4454 126.951 42.5 124.205 42.5H53.0487C50.4271 42.5 48.7006 39.7152 49.8428 37.4186C50.8183 35.4571 51.6674 33.9254 52.4754 32.8754Z" fill="#FDCF07" stroke="black" stroke-width="3"/>
<path d="M52.4754 32.8754C53.277 31.8337 53.8258 31.5466 54.1569 31.5H122.34C122.648 31.5 122.77 31.5274 122.826 31.5495C123.355 31.7601 124.009 32.2839 124.812 33.2807C125.6 34.2585 126.425 35.5538 127.341 37.1195C128.702 39.4454 126.951 42.5 124.205 42.5H53.0487C50.4271 42.5 48.7006 39.7152 49.8428 37.4186C50.8183 35.4571 51.6674 33.9254 52.4754 32.8754Z" fill="#FDCF07" stroke="black" stroke-width="3"/>
<path d="M241.475 32.8754C242.277 31.8337 242.826 31.5466 243.157 31.5H311.34C311.648 31.5 311.77 31.5274 311.826 31.5495C312.355 31.7601 313.009 32.2839 313.812 33.2807C314.6 34.2585 315.425 35.5538 316.341 37.1195C317.702 39.4454 315.951 42.5 313.205 42.5H242.049C239.427 42.5 237.701 39.7152 238.843 37.4186C239.818 35.4571 240.667 33.9254 241.475 32.8754Z" fill="#FDCF07" stroke="black" stroke-width="3"/>
<path d="M241.475 32.8754C242.277 31.8337 242.826 31.5466 243.157 31.5H311.34C311.648 31.5 311.77 31.5274 311.826 31.5495C312.355 31.7601 313.009 32.2839 313.812 33.2807C314.6 34.2585 315.425 35.5538 316.341 37.1195C317.702 39.4454 315.951 42.5 313.205 42.5H242.049C239.427 42.5 237.701 39.7152 238.843 37.4186C239.818 35.4571 240.667 33.9254 241.475 32.8754Z" fill="#FDCF07" stroke="black" stroke-width="3"/>
<path d="M432.475 32.8754C433.277 31.8337 433.826 31.5466 434.157 31.5H502.34C502.648 31.5 502.77 31.5274 502.826 31.5495C503.355 31.7601 504.009 32.2839 504.812 33.2807C505.6 34.2585 506.425 35.5538 507.341 37.1195C508.702 39.4454 506.951 42.5 504.205 42.5H433.049C430.427 42.5 428.701 39.7152 429.843 37.4186C430.818 35.4571 431.667 33.9254 432.475 32.8754Z" fill="#FDCF07" stroke="black" stroke-width="3"/>
<path d="M432.475 32.8754C433.277 31.8337 433.826 31.5466 434.157 31.5H502.34C502.648 31.5 502.77 31.5274 502.826 31.5495C503.355 31.7601 504.009 32.2839 504.812 33.2807C505.6 34.2585 506.425 35.5538 507.341 37.1195C508.702 39.4454 506.951 42.5 504.205 42.5H433.049C430.427 42.5 428.701 39.7152 429.843 37.4186C430.818 35.4571 431.667 33.9254 432.475 32.8754Z" fill="#FDCF07" stroke="black" stroke-width="3"/>
<path d="M623.475 32.8754C624.277 31.8337 624.826 31.5466 625.157 31.5H693.34C693.648 31.5 693.77 31.5274 693.826 31.5495C694.355 31.7601 695.009 32.2839 695.812 33.2807C696.6 34.2585 697.425 35.5538 698.341 37.1195C699.702 39.4454 697.951 42.5 695.205 42.5H624.049C621.427 42.5 619.701 39.7152 620.843 37.4186C621.818 35.4571 622.667 33.9254 623.475 32.8754Z" fill="#FDCF07" stroke="black" stroke-width="3"/>
<path d="M623.475 32.8754C624.277 31.8337 624.826 31.5466 625.157 31.5H693.34C693.648 31.5 693.77 31.5274 693.826 31.5495C694.355 31.7601 695.009 32.2839 695.812 33.2807C696.6 34.2585 697.425 35.5538 698.341 37.1195C699.702 39.4454 697.951 42.5 695.205 42.5H624.049C621.427 42.5 619.701 39.7152 620.843 37.4186C621.818 35.4571 622.667 33.9254 623.475 32.8754Z" fill="#FDCF07" stroke="black" stroke-width="3"/>
<path d="M35.0746 42.5H141.239C143.41 42.8431 145.583 44.5426 148.344 47.4983C150.367 49.6634 148.729 53.5 145.606 53.5H31.111C28.1494 53.5 26.496 50.0436 28.2413 47.8393C29.5939 46.1309 30.7957 44.8016 31.9529 43.8869C33.0827 42.9938 34.0878 42.5613 35.0746 42.5Z" fill="#FDCF07" stroke="black" stroke-width="3"/>
<path d="M35.0746 42.5H141.239C143.41 42.8431 145.583 44.5426 148.344 47.4983C150.367 49.6634 148.729 53.5 145.606 53.5H31.111C28.1494 53.5 26.496 50.0436 28.2413 47.8393C29.5939 46.1309 30.7957 44.8016 31.9529 43.8869C33.0827 42.9938 34.0878 42.5613 35.0746 42.5Z" fill="#FDCF07" stroke="black" stroke-width="3"/>
<path d="M224.075 42.5H330.239C332.41 42.8431 334.583 44.5426 337.344 47.4983C339.367 49.6634 337.729 53.5 334.606 53.5H220.111C217.149 53.5 215.496 50.0436 217.241 47.8393C218.594 46.1309 219.796 44.8016 220.953 43.8869C222.083 42.9938 223.088 42.5613 224.075 42.5Z" fill="#FDCF07" stroke="black" stroke-width="3"/>
<path d="M224.075 42.5H330.239C332.41 42.8431 334.583 44.5426 337.344 47.4983C339.367 49.6634 337.729 53.5 334.606 53.5H220.111C217.149 53.5 215.496 50.0436 217.241 47.8393C218.594 46.1309 219.796 44.8016 220.953 43.8869C222.083 42.9938 223.088 42.5613 224.075 42.5Z" fill="#FDCF07" stroke="black" stroke-width="3"/>
<path d="M415.075 42.5H521.239C523.41 42.8431 525.583 44.5426 528.344 47.4983C530.367 49.6634 528.729 53.5 525.606 53.5H411.111C408.149 53.5 406.496 50.0436 408.241 47.8393C409.594 46.1309 410.796 44.8016 411.953 43.8869C413.083 42.9938 414.088 42.5613 415.075 42.5Z" fill="#FDCF07" stroke="black" stroke-width="3"/>
<path d="M415.075 42.5H521.239C523.41 42.8431 525.583 44.5426 528.344 47.4983C530.367 49.6634 528.729 53.5 525.606 53.5H411.111C408.149 53.5 406.496 50.0436 408.241 47.8393C409.594 46.1309 410.796 44.8016 411.953 43.8869C413.083 42.9938 414.088 42.5613 415.075 42.5Z" fill="#FDCF07" stroke="black" stroke-width="3"/>
<path d="M606.075 42.5H712.239C714.41 42.8431 716.583 44.5426 719.344 47.4983C721.367 49.6634 719.729 53.5 716.606 53.5H602.111C599.149 53.5 597.496 50.0436 599.241 47.8393C600.594 46.1309 601.796 44.8016 602.953 43.8869C604.083 42.9938 605.088 42.5613 606.075 42.5Z" fill="#FDCF07" stroke="black" stroke-width="3"/>
<path d="M606.075 42.5H712.239C714.41 42.8431 716.583 44.5426 719.344 47.4983C721.367 49.6634 719.729 53.5 716.606 53.5H602.111C599.149 53.5 597.496 50.0436 599.241 47.8393C600.594 46.1309 601.796 44.8016 602.953 43.8869C604.083 42.9938 605.088 42.5613 606.075 42.5Z" fill="#FDCF07" stroke="black" stroke-width="3"/>
<rect x="5.5" y="53.5" width="166" height="16" rx="3.5" fill="#FDCF07" stroke="black" stroke-width="3"/>
<rect x="5.5" y="53.5" width="166" height="16" rx="3.5" fill="#FDCF07" stroke="black" stroke-width="3"/>
<rect x="194.5" y="53.5" width="166" height="16" rx="3.5" fill="#FDCF07" stroke="black" stroke-width="3"/>
<rect x="194.5" y="53.5" width="166" height="16" rx="3.5" fill="#FDCF07" stroke="black" stroke-width="3"/>
<rect x="385.5" y="53.5" width="166" height="16" rx="3.5" fill="#FDCF07" stroke="black" stroke-width="3"/>
<rect x="385.5" y="53.5" width="166" height="16" rx="3.5" fill="#FDCF07" stroke="black" stroke-width="3"/>
<rect x="576.5" y="53.5" width="166" height="16" rx="3.5" fill="#FDCF07" stroke="black" stroke-width="3"/>
<rect x="576.5" y="53.5" width="166" height="16" rx="3.5" fill="#FDCF07" stroke="black" stroke-width="3"/>
<path d="M10.78 72.7445C10.946 71.6435 11.1023 70.8388 11.2427 70.3137C11.6346 70.2903 12.182 70.2644 12.8954 70.2381C14.2255 70.189 16.034 70.1407 18.2571 70.0937C22.7019 69.9999 28.7829 69.9118 35.9649 69.8338C50.3279 69.6778 69.0807 69.5619 87.9259 69.5186C106.771 69.4753 125.705 69.5046 140.429 69.6389C147.793 69.7061 154.097 69.7995 158.811 69.923C161.168 69.9848 163.119 70.0539 164.602 70.1305C165.713 70.1879 166.511 70.2476 167.013 70.3039C167.032 70.3472 167.053 70.3972 167.076 70.4547C167.274 70.9557 167.496 71.7565 167.728 72.8903C168.19 75.1395 168.645 78.4461 169.086 82.6962C169.965 91.1823 170.772 103.269 171.479 117.816C172.892 146.902 173.902 185.738 174.305 225.085C174.709 264.433 174.506 304.272 173.497 335.365C172.992 350.915 172.287 364.257 171.356 374.249C170.891 379.248 170.372 383.382 169.799 386.524C169.513 388.096 169.217 389.397 168.915 390.422C168.606 391.47 168.316 392.14 168.078 392.51C167.552 393.329 166.579 394.197 165.058 395.068C163.55 395.93 161.594 396.743 159.223 397.495C154.481 399 148.236 400.214 140.943 401.144C126.368 403.004 107.816 403.71 89.1928 403.447C70.5732 403.185 51.9364 401.956 37.1995 399.962C29.8272 398.965 23.4665 397.781 18.5854 396.443C16.1442 395.774 14.1044 395.074 12.5067 394.355C10.8842 393.624 9.83046 392.922 9.2532 392.3C9.07792 392.112 8.79286 391.64 8.46483 390.714C8.14981 389.824 7.8398 388.647 7.5407 387.179C6.94301 384.247 6.41486 380.288 5.95546 375.427C5.03737 365.712 4.40622 352.532 4.01402 337.053C3.22981 306.105 3.40317 266.071 4.12711 226.415C4.85101 186.761 6.12507 147.504 7.54068 118.115C8.24861 103.417 8.99131 91.2015 9.71718 82.6418C10.0805 78.3571 10.4375 75.0153 10.78 72.7445ZM166.891 70.0694C166.892 70.0704 166.892 70.0716 166.893 70.073C166.883 70.061 166.883 70.0583 166.891 70.0694Z" fill="#FDCF07" stroke="black" stroke-width="3"/>
<path d="M10.78 72.7445C10.946 71.6435 11.1023 70.8388 11.2427 70.3137C11.6346 70.2903 12.182 70.2644 12.8954 70.2381C14.2255 70.189 16.034 70.1407 18.2571 70.0937C22.7019 69.9999 28.7829 69.9118 35.9649 69.8338C50.3279 69.6778 69.0807 69.5619 87.9259 69.5186C106.771 69.4753 125.705 69.5046 140.429 69.6389C147.793 69.7061 154.097 69.7995 158.811 69.923C161.168 69.9848 163.119 70.0539 164.602 70.1305C165.713 70.1879 166.511 70.2476 167.013 70.3039C167.032 70.3472 167.053 70.3972 167.076 70.4547C167.274 70.9557 167.496 71.7565 167.728 72.8903C168.19 75.1395 168.645 78.4461 169.086 82.6962C169.965 91.1823 170.772 103.269 171.479 117.816C172.892 146.902 173.902 185.738 174.305 225.085C174.709 264.433 174.506 304.272 173.497 335.365C172.992 350.915 172.287 364.257 171.356 374.249C170.891 379.248 170.372 383.382 169.799 386.524C169.513 388.096 169.217 389.397 168.915 390.422C168.606 391.47 168.316 392.14 168.078 392.51C167.552 393.329 166.579 394.197 165.058 395.068C163.55 395.93 161.594 396.743 159.223 397.495C154.481 399 148.236 400.214 140.943 401.144C126.368 403.004 107.816 403.71 89.1928 403.447C70.5732 403.185 51.9364 401.956 37.1995 399.962C29.8272 398.965 23.4665 397.781 18.5854 396.443C16.1442 395.774 14.1044 395.074 12.5067 394.355C10.8842 393.624 9.83046 392.922 9.2532 392.3C9.07792 392.112 8.79286 391.64 8.46483 390.714C8.14981 389.824 7.8398 388.647 7.5407 387.179C6.94301 384.247 6.41486 380.288 5.95546 375.427C5.03737 365.712 4.40622 352.532 4.01402 337.053C3.22981 306.105 3.40317 266.071 4.12711 226.415C4.85101 186.761 6.12507 147.504 7.54068 118.115C8.24861 103.417 8.99131 91.2015 9.71718 82.6418C10.0805 78.3571 10.4375 75.0153 10.78 72.7445ZM166.891 70.0694C166.892 70.0704 166.892 70.0716 166.893 70.073C166.883 70.061 166.883 70.0583 166.891 70.0694Z" fill="#FDCF07" stroke="black" stroke-width="3"/>
<path d="M199.78 72.7445C199.946 71.6435 200.102 70.8388 200.243 70.3137C200.635 70.2903 201.182 70.2644 201.895 70.2381C203.226 70.189 205.034 70.1407 207.257 70.0937C211.702 69.9999 217.783 69.9118 224.965 69.8338C239.328 69.6778 258.081 69.5619 276.926 69.5186C295.771 69.4753 314.705 69.5046 329.429 69.6389C336.793 69.7061 343.097 69.7995 347.811 69.923C350.168 69.9848 352.119 70.0539 353.602 70.1305C354.713 70.1879 355.511 70.2476 356.013 70.3039C356.032 70.3472 356.053 70.3972 356.076 70.4547C356.274 70.9557 356.496 71.7565 356.728 72.8903C357.19 75.1395 357.645 78.4461 358.086 82.6962C358.965 91.1823 359.772 103.269 360.479 117.816C361.892 146.902 362.902 185.738 363.305 225.085C363.709 264.433 363.506 304.272 362.497 335.365C361.992 350.915 361.287 364.257 360.356 374.249C359.891 379.248 359.372 383.382 358.799 386.524C358.513 388.096 358.217 389.397 357.915 390.422C357.606 391.47 357.316 392.14 357.078 392.51C356.552 393.329 355.579 394.197 354.058 395.068C352.55 395.93 350.594 396.743 348.223 397.495C343.481 399 337.236 400.214 329.943 401.144C315.368 403.004 296.816 403.71 278.193 403.447C259.573 403.185 240.936 401.956 226.199 399.962C218.827 398.965 212.466 397.781 207.585 396.443C205.144 395.774 203.104 395.074 201.507 394.355C199.884 393.624 198.83 392.922 198.253 392.3C198.078 392.112 197.793 391.64 197.465 390.714C197.15 389.824 196.84 388.647 196.541 387.179C195.943 384.247 195.415 380.288 194.955 375.427C194.037 365.712 193.406 352.532 193.014 337.053C192.23 306.105 192.403 266.071 193.127 226.415C193.851 186.761 195.125 147.504 196.541 118.115C197.249 103.417 197.991 91.2015 198.717 82.6418C199.081 78.3571 199.438 75.0153 199.78 72.7445ZM355.891 70.0694C355.892 70.0704 355.892 70.0716 355.893 70.073C355.883 70.061 355.883 70.0583 355.891 70.0694Z" fill="#FDCF07" stroke="black" stroke-width="3"/>
<path d="M199.78 72.7445C199.946 71.6435 200.102 70.8388 200.243 70.3137C200.635 70.2903 201.182 70.2644 201.895 70.2381C203.226 70.189 205.034 70.1407 207.257 70.0937C211.702 69.9999 217.783 69.9118 224.965 69.8338C239.328 69.6778 258.081 69.5619 276.926 69.5186C295.771 69.4753 314.705 69.5046 329.429 69.6389C336.793 69.7061 343.097 69.7995 347.811 69.923C350.168 69.9848 352.119 70.0539 353.602 70.1305C354.713 70.1879 355.511 70.2476 356.013 70.3039C356.032 70.3472 356.053 70.3972 356.076 70.4547C356.274 70.9557 356.496 71.7565 356.728 72.8903C357.19 75.1395 357.645 78.4461 358.086 82.6962C358.965 91.1823 359.772 103.269 360.479 117.816C361.892 146.902 362.902 185.738 363.305 225.085C363.709 264.433 363.506 304.272 362.497 335.365C361.992 350.915 361.287 364.257 360.356 374.249C359.891 379.248 359.372 383.382 358.799 386.524C358.513 388.096 358.217 389.397 357.915 390.422C357.606 391.47 357.316 392.14 357.078 392.51C356.552 393.329 355.579 394.197 354.058 395.068C352.55 395.93 350.594 396.743 348.223 397.495C343.481 399 337.236 400.214 329.943 401.144C315.368 403.004 296.816 403.71 278.193 403.447C259.573 403.185 240.936 401.956 226.199 399.962C218.827 398.965 212.466 397.781 207.585 396.443C205.144 395.774 203.104 395.074 201.507 394.355C199.884 393.624 198.83 392.922 198.253 392.3C198.078 392.112 197.793 391.64 197.465 390.714C197.15 389.824 196.84 388.647 196.541 387.179C195.943 384.247 195.415 380.288 194.955 375.427C194.037 365.712 193.406 352.532 193.014 337.053C192.23 306.105 192.403 266.071 193.127 226.415C193.851 186.761 195.125 147.504 196.541 118.115C197.249 103.417 197.991 91.2015 198.717 82.6418C199.081 78.3571 199.438 75.0153 199.78 72.7445ZM355.891 70.0694C355.892 70.0704 355.892 70.0716 355.893 70.073C355.883 70.061 355.883 70.0583 355.891 70.0694Z" fill="#FDCF07" stroke="black" stroke-width="3"/>
<path d="M390.78 72.7445C390.946 71.6435 391.102 70.8388 391.243 70.3137C391.635 70.2903 392.182 70.2644 392.895 70.2381C394.226 70.189 396.034 70.1407 398.257 70.0937C402.702 69.9999 408.783 69.9118 415.965 69.8338C430.328 69.6778 449.081 69.5619 467.926 69.5186C486.771 69.4753 505.705 69.5046 520.429 69.6389C527.793 69.7061 534.097 69.7995 538.811 69.923C541.168 69.9848 543.119 70.0539 544.602 70.1305C545.713 70.1879 546.511 70.2476 547.013 70.3039C547.032 70.3472 547.053 70.3972 547.076 70.4547C547.274 70.9557 547.496 71.7565 547.728 72.8903C548.19 75.1395 548.645 78.4461 549.086 82.6962C549.965 91.1823 550.772 103.269 551.479 117.816C552.892 146.902 553.902 185.738 554.305 225.085C554.709 264.433 554.506 304.272 553.497 335.365C552.992 350.915 552.287 364.257 551.356 374.249C550.891 379.248 550.372 383.382 549.799 386.524C549.513 388.096 549.217 389.397 548.915 390.422C548.606 391.47 548.316 392.14 548.078 392.51C547.552 393.329 546.579 394.197 545.058 395.068C543.55 395.93 541.594 396.743 539.223 397.495C534.481 399 528.236 400.214 520.943 401.144C506.368 403.004 487.816 403.71 469.193 403.447C450.573 403.185 431.936 401.956 417.199 399.962C409.827 398.965 403.466 397.781 398.585 396.443C396.144 395.774 394.104 395.074 392.507 394.355C390.884 393.624 389.83 392.922 389.253 392.3C389.078 392.112 388.793 391.64 388.465 390.714C388.15 389.824 387.84 388.647 387.541 387.179C386.943 384.247 386.415 380.288 385.955 375.427C385.037 365.712 384.406 352.532 384.014 337.053C383.23 306.105 383.403 266.071 384.127 226.415C384.851 186.761 386.125 147.504 387.541 118.115C388.249 103.417 388.991 91.2015 389.717 82.6418C390.081 78.3571 390.438 75.0153 390.78 72.7445ZM546.891 70.0694C546.892 70.0704 546.892 70.0716 546.893 70.073C546.883 70.061 546.883 70.0583 546.891 70.0694Z" fill="#FDCF07" stroke="black" stroke-width="3"/>
<path d="M390.78 72.7445C390.946 71.6435 391.102 70.8388 391.243 70.3137C391.635 70.2903 392.182 70.2644 392.895 70.2381C394.226 70.189 396.034 70.1407 398.257 70.0937C402.702 69.9999 408.783 69.9118 415.965 69.8338C430.328 69.6778 449.081 69.5619 467.926 69.5186C486.771 69.4753 505.705 69.5046 520.429 69.6389C527.793 69.7061 534.097 69.7995 538.811 69.923C541.168 69.9848 543.119 70.0539 544.602 70.1305C545.713 70.1879 546.511 70.2476 547.013 70.3039C547.032 70.3472 547.053 70.3972 547.076 70.4547C547.274 70.9557 547.496 71.7565 547.728 72.8903C548.19 75.1395 548.645 78.4461 549.086 82.6962C549.965 91.1823 550.772 103.269 551.479 117.816C552.892 146.902 553.902 185.738 554.305 225.085C554.709 264.433 554.506 304.272 553.497 335.365C552.992 350.915 552.287 364.257 551.356 374.249C550.891 379.248 550.372 383.382 549.799 386.524C549.513 388.096 549.217 389.397 548.915 390.422C548.606 391.47 548.316 392.14 548.078 392.51C547.552 393.329 546.579 394.197 545.058 395.068C543.55 395.93 541.594 396.743 539.223 397.495C534.481 399 528.236 400.214 520.943 401.144C506.368 403.004 487.816 403.71 469.193 403.447C450.573 403.185 431.936 401.956 417.199 399.962C409.827 398.965 403.466 397.781 398.585 396.443C396.144 395.774 394.104 395.074 392.507 394.355C390.884 393.624 389.83 392.922 389.253 392.3C389.078 392.112 388.793 391.64 388.465 390.714C388.15 389.824 387.84 388.647 387.541 387.179C386.943 384.247 386.415 380.288 385.955 375.427C385.037 365.712 384.406 352.532 384.014 337.053C383.23 306.105 383.403 266.071 384.127 226.415C384.851 186.761 386.125 147.504 387.541 118.115C388.249 103.417 388.991 91.2015 389.717 82.6418C390.081 78.3571 390.438 75.0153 390.78 72.7445ZM546.891 70.0694C546.892 70.0704 546.892 70.0716 546.893 70.073C546.883 70.061 546.883 70.0583 546.891 70.0694Z" fill="#FDCF07" stroke="black" stroke-width="3"/>
<path d="M581.78 72.7445C581.946 71.6435 582.102 70.8388 582.243 70.3137C582.635 70.2903 583.182 70.2644 583.895 70.2381C585.226 70.189 587.034 70.1407 589.257 70.0937C593.702 69.9999 599.783 69.9118 606.965 69.8338C621.328 69.6778 640.081 69.5619 658.926 69.5186C677.771 69.4753 696.705 69.5046 711.429 69.6389C718.793 69.7061 725.097 69.7995 729.811 69.923C732.168 69.9848 734.119 70.0539 735.602 70.1305C736.713 70.1879 737.511 70.2476 738.013 70.3039C738.032 70.3472 738.053 70.3972 738.076 70.4547C738.274 70.9557 738.496 71.7565 738.728 72.8903C739.19 75.1395 739.645 78.4461 740.086 82.6962C740.965 91.1823 741.772 103.269 742.479 117.816C743.892 146.902 744.902 185.738 745.305 225.085C745.709 264.433 745.506 304.272 744.497 335.365C743.992 350.915 743.287 364.257 742.356 374.249C741.891 379.248 741.372 383.382 740.799 386.524C740.513 388.096 740.217 389.397 739.915 390.422C739.606 391.47 739.316 392.14 739.078 392.51C738.552 393.329 737.579 394.197 736.058 395.068C734.55 395.93 732.594 396.743 730.223 397.495C725.481 399 719.236 400.214 711.943 401.144C697.368 403.004 678.816 403.71 660.193 403.447C641.573 403.185 622.936 401.956 608.199 399.962C600.827 398.965 594.466 397.781 589.585 396.443C587.144 395.774 585.104 395.074 583.507 394.355C581.884 393.624 580.83 392.922 580.253 392.3C580.078 392.112 579.793 391.64 579.465 390.714C579.15 389.824 578.84 388.647 578.541 387.179C577.943 384.247 577.415 380.288 576.955 375.427C576.037 365.712 575.406 352.532 575.014 337.053C574.23 306.105 574.403 266.071 575.127 226.415C575.851 186.761 577.125 147.504 578.541 118.115C579.249 103.417 579.991 91.2015 580.717 82.6418C581.081 78.3571 581.438 75.0153 581.78 72.7445ZM737.891 70.0694C737.892 70.0704 737.892 70.0716 737.893 70.073C737.883 70.061 737.883 70.0583 737.891 70.0694Z" fill="#FDCF07" stroke="black" stroke-width="3"/>
<path d="M581.78 72.7445C581.946 71.6435 582.102 70.8388 582.243 70.3137C582.635 70.2903 583.182 70.2644 583.895 70.2381C585.226 70.189 587.034 70.1407 589.257 70.0937C593.702 69.9999 599.783 69.9118 606.965 69.8338C621.328 69.6778 640.081 69.5619 658.926 69.5186C677.771 69.4753 696.705 69.5046 711.429 69.6389C718.793 69.7061 725.097 69.7995 729.811 69.923C732.168 69.9848 734.119 70.0539 735.602 70.1305C736.713 70.1879 737.511 70.2476 738.013 70.3039C738.032 70.3472 738.053 70.3972 738.076 70.4547C738.274 70.9557 738.496 71.7565 738.728 72.8903C739.19 75.1395 739.645 78.4461 740.086 82.6962C740.965 91.1823 741.772 103.269 742.479 117.816C743.892 146.902 744.902 185.738 745.305 225.085C745.709 264.433 745.506 304.272 744.497 335.365C743.992 350.915 743.287 364.257 742.356 374.249C741.891 379.248 741.372 383.382 740.799 386.524C740.513 388.096 740.217 389.397 739.915 390.422C739.606 391.47 739.316 392.14 739.078 392.51C738.552 393.329 737.579 394.197 736.058 395.068C734.55 395.93 732.594 396.743 730.223 397.495C725.481 399 719.236 400.214 711.943 401.144C697.368 403.004 678.816 403.71 660.193 403.447C641.573 403.185 622.936 401.956 608.199 399.962C600.827 398.965 594.466 397.781 589.585 396.443C587.144 395.774 585.104 395.074 583.507 394.355C581.884 393.624 580.83 392.922 580.253 392.3C580.078 392.112 579.793 391.64 579.465 390.714C579.15 389.824 578.84 388.647 578.541 387.179C577.943 384.247 577.415 380.288 576.955 375.427C576.037 365.712 575.406 352.532 575.014 337.053C574.23 306.105 574.403 266.071 575.127 226.415C575.851 186.761 577.125 147.504 578.541 118.115C579.249 103.417 579.991 91.2015 580.717 82.6418C581.081 78.3571 581.438 75.0153 581.78 72.7445ZM737.891 70.0694C737.892 70.0704 737.892 70.0716 737.893 70.073C737.883 70.061 737.883 70.0583 737.891 70.0694Z" fill="#FDCF07" stroke="black" stroke-width="3"/>
<path d="M10.7033 395.321C72.5363 407.033 108.705 406.938 168.602 395.402C170.467 395.043 172.285 396.216 172.714 398.044L175.362 409.322C175.812 411.242 174.577 413.158 172.644 413.537C110.507 425.73 72.1922 425.248 5.84447 413.521C3.77505 413.156 2.49448 411.049 3.12204 409.044L6.66776 397.717C7.19772 396.023 8.93776 394.986 10.7033 395.321Z" fill="#FDCF07" stroke="black" stroke-width="3"/>
<path d="M10.7033 395.321C72.5363 407.033 108.705 406.938 168.602 395.402C170.467 395.043 172.285 396.216 172.714 398.044L175.362 409.322C175.812 411.242 174.577 413.158 172.644 413.537C110.507 425.73 72.1922 425.248 5.84447 413.521C3.77505 413.156 2.49448 411.049 3.12204 409.044L6.66776 397.717C7.19772 396.023 8.93776 394.986 10.7033 395.321Z" fill="#FDCF07" stroke="black" stroke-width="3"/>
<path d="M199.703 395.321C261.536 407.033 297.705 406.938 357.602 395.402C359.467 395.043 361.285 396.216 361.714 398.044L364.362 409.322C364.812 411.242 363.577 413.158 361.644 413.537C299.507 425.73 261.192 425.248 194.844 413.521C192.775 413.156 191.494 411.049 192.122 409.044L195.668 397.717C196.198 396.023 197.938 394.986 199.703 395.321Z" fill="#FDCF07" stroke="black" stroke-width="3"/>
<path d="M199.703 395.321C261.536 407.033 297.705 406.938 357.602 395.402C359.467 395.043 361.285 396.216 361.714 398.044L364.362 409.322C364.812 411.242 363.577 413.158 361.644 413.537C299.507 425.73 261.192 425.248 194.844 413.521C192.775 413.156 191.494 411.049 192.122 409.044L195.668 397.717C196.198 396.023 197.938 394.986 199.703 395.321Z" fill="#FDCF07" stroke="black" stroke-width="3"/>
<path d="M390.703 395.321C452.536 407.033 488.705 406.938 548.602 395.402C550.467 395.043 552.285 396.216 552.714 398.044L555.362 409.322C555.812 411.242 554.577 413.158 552.644 413.537C490.507 425.73 452.192 425.248 385.844 413.521C383.775 413.156 382.494 411.049 383.122 409.044L386.668 397.717C387.198 396.023 388.938 394.986 390.703 395.321Z" fill="#FDCF07" stroke="black" stroke-width="3"/>
<path d="M390.703 395.321C452.536 407.033 488.705 406.938 548.602 395.402C550.467 395.043 552.285 396.216 552.714 398.044L555.362 409.322C555.812 411.242 554.577 413.158 552.644 413.537C490.507 425.73 452.192 425.248 385.844 413.521C383.775 413.156 382.494 411.049 383.122 409.044L386.668 397.717C387.198 396.023 388.938 394.986 390.703 395.321Z" fill="#FDCF07" stroke="black" stroke-width="3"/>
<path d="M581.703 395.321C643.536 407.033 679.705 406.938 739.602 395.402C741.467 395.043 743.285 396.216 743.714 398.044L746.362 409.322C746.812 411.242 745.577 413.158 743.644 413.537C681.507 425.73 643.192 425.248 576.844 413.521C574.775 413.156 573.494 411.049 574.122 409.044L577.668 397.717C578.198 396.023 579.938 394.986 581.703 395.321Z" fill="#FDCF07" stroke="black" stroke-width="3"/>
<path d="M581.703 395.321C643.536 407.033 679.705 406.938 739.602 395.402C741.467 395.043 743.285 396.216 743.714 398.044L746.362 409.322C746.812 411.242 745.577 413.158 743.644 413.537C681.507 425.73 643.192 425.248 576.844 413.521C574.775 413.156 573.494 411.049 574.122 409.044L577.668 397.717C578.198 396.023 579.938 394.986 581.703 395.321Z" fill="#FDCF07" stroke="black" stroke-width="3"/>
</svg>
