<svg width="379" height="505" viewBox="0 0 379 505" fill="none" xmlns="http://www.w3.org/2000/svg">
<path d="M283.5 358C283.5 417.865 234.086 466.5 173 466.5C111.914 466.5 62.5 417.865 62.5 358C62.5 298.135 111.914 249.5 173 249.5C234.086 249.5 283.5 298.135 283.5 358Z" stroke="#D9D9D9" stroke-width="7"/>
<path d="M322.794 64.9529L121.991 374.223L5.75648 248.089L322.794 64.9529Z" fill="#FDCF07"/>
<line y1="-2.5" x2="242.211" y2="-2.5" transform="matrix(0.744011 -0.668167 0.677508 0.735515 19.7383 505)" stroke="white" stroke-width="5"/>
<rect width="40.9257" height="156.685" transform="matrix(0.647565 0.762011 -0.77004 0.637996 246.727 330.27)" fill="#E11D0B"/>
<line y1="-5" x2="202.467" y2="-5" transform="matrix(0.750191 -0.661222 0.670623 0.741799 90.1055 495.68)" stroke="#FDCF07" stroke-width="10"/>
</svg>
