<svg width="174" height="371" viewBox="0 0 174 371" fill="none" xmlns="http://www.w3.org/2000/svg">
<path d="M33.7024 292.5L34.7176 284.5H139.282L140.298 292.5H33.7024Z" fill="#FDCF07" stroke="#1F1F1F" stroke-width="3"/>
<path d="M153.961 368.322L133.917 233.479L143.536 233.479L163.006 368.322L153.961 368.322Z" fill="#FDCF07" stroke="#1F1F1F" stroke-width="3"/>
<path d="M20.078 368.264L40.1221 233.421L30.503 233.421L11.0327 368.264L20.078 368.264Z" fill="#FDCF07" stroke="#1F1F1F" stroke-width="3"/>
<path d="M80.5 232.5H93.5V369.5H86.1579H80.5V232.5Z" fill="#FDCF07" stroke="#1F1F1F" stroke-width="3"/>
<rect x="5.5" y="56.5" width="163" height="166" fill="#FDCF07" stroke="#1F1F1F" stroke-width="3"/>
<path d="M116.5 46.8218V52C116.5 52.8284 115.828 53.5 115 53.5H59C58.1716 53.5 57.5 52.8284 57.5 52V46.8136C57.5 46.1937 57.8814 45.6376 58.4597 45.4143L65.7471 42.6007C65.9195 42.5341 66.1027 42.5 66.2874 42.5H107.611C107.794 42.5 107.975 42.5334 108.146 42.5987L115.535 45.4205C116.116 45.6424 116.5 46.1998 116.5 46.8218Z" fill="#FDCF07" stroke="#1F1F1F" stroke-width="3"/>
<path d="M93.5 7.5V39.5H81.5V7.5C81.5 4.18629 84.1863 1.5 87.5 1.5C90.8137 1.5 93.5 4.18629 93.5 7.5Z" fill="#FDCF07" stroke="#1F1F1F" stroke-width="3"/>
<rect x="1.5" y="225.5" width="171" height="5" rx="1.5" fill="#FDCF07" stroke="#1F1F1F" stroke-width="3"/>
</svg>
