<svg width="367" height="730" viewBox="0 0 367 730" fill="none" xmlns="http://www.w3.org/2000/svg">
<rect x="222" y="86" width="42" height="12" fill="black"/>
<path d="M274.586 46.3411C274.586 60.3597 270.898 72.9817 265.015 82.0533C259.123 91.1396 251.16 96.5 242.586 96.5C234.012 96.5 226.049 91.1396 220.156 82.0533C214.274 72.9817 210.586 60.3597 210.586 46.3411C210.586 18.2229 225.275 1.5 242.586 1.5C259.897 1.5 274.586 18.2229 274.586 46.3411Z" fill="black" stroke="#0047FF" stroke-width="3"/>
<mask id="path-3-inside-1_420_267" fill="white">
<rect x="216.086" y="98" width="54" height="18" rx="2"/>
</mask>
<rect x="216.086" y="98" width="54" height="18" rx="2" stroke="#0047FF" stroke-width="6" mask="url(#path-3-inside-1_420_267)"/>
<path d="M285.615 326.485C285.479 326.88 285.362 327.219 285.264 327.5H168.065C167.9 325.091 167.417 321.231 166.745 316.317C166.314 313.164 165.799 309.526 165.227 305.498C164.684 301.663 164.09 297.476 163.471 293.015C160.929 274.682 157.945 251.558 156.162 228.417C154.378 205.258 153.805 182.16 156.058 163.857C157.185 154.702 159.009 146.828 161.694 140.77C164.382 134.704 167.855 130.627 172.187 128.764C191.235 120.574 217.896 115.193 244.207 114.562C270.551 113.931 296.273 118.068 313.585 128.666C317.507 131.067 320.241 135.783 321.85 142.605C323.454 149.403 323.881 158.05 323.399 167.943C322.434 187.717 317.85 212.136 312.144 235.957C306.441 259.762 299.633 282.9 294.25 300.092C291.558 308.687 289.224 315.792 287.562 320.747C286.732 323.225 286.069 325.165 285.615 326.485Z" fill="black" stroke="#0047FF" stroke-width="3"/>
<line x1="220.586" y1="83" x2="220.586" y2="98" stroke="#0047FF" stroke-width="3"/>
<line x1="265.586" y1="81" x2="265.586" y2="98" stroke="#0047FF" stroke-width="3"/>
<path d="M297.084 291C315.766 333.762 314.024 352.278 320.584 405.5" stroke="#0047FF" stroke-width="3"/>
<line x1="355.128" y1="403.499" x2="319.128" y2="404.499" stroke="#0047FF" stroke-width="3"/>
<line y1="-1.5" x2="34.5366" y2="-1.5" transform="matrix(-0.999907 0.013663 -0.0180408 -0.999837 353.789 395.389)" stroke="#0047FF" stroke-width="3"/>
<path d="M159.656 589.767C144.132 503.236 132.462 438.187 167.672 330.5H229.562C227.57 458.268 223.575 530.597 214.613 658.5H171.175C167.529 633.651 163.476 611.059 159.656 589.767Z" fill="black" stroke="#0047FF" stroke-width="3"/>
<path d="M293.492 346.453C291.173 339.145 288.529 333.776 285.62 330.5H230.605C232.482 458.269 236.245 530.599 244.689 658.5H292.213C300.79 595.463 305.539 520.331 304.876 457.403C304.543 425.72 302.837 397.17 299.568 374.832C297.934 363.661 295.913 354.08 293.492 346.453Z" fill="black" stroke="#0047FF" stroke-width="3"/>
<line x1="231.086" y1="417.5" x2="303.086" y2="417.5" stroke="#0047FF" stroke-width="3"/>
<path d="M194.966 693.443C190.718 699.847 184.916 704.592 179.037 707.121C173.155 709.652 167.329 709.924 162.792 707.644C158.347 705.41 156.264 700.949 156.426 695.202C156.587 689.452 159.014 682.625 163.303 676.16C164.42 674.476 165.365 672.939 166.206 671.552C166.363 671.293 166.516 671.041 166.666 670.794C167.322 669.708 167.912 668.733 168.489 667.839C169.907 665.645 171.138 664.125 172.745 663.02C174.331 661.929 176.432 661.142 179.759 660.689C183.109 660.233 187.599 660.128 193.882 660.338C199.579 660.528 203.961 661.009 207.265 661.713C210.583 662.419 212.708 663.328 213.993 664.309C215.229 665.253 215.702 666.269 215.734 667.357C215.768 668.51 215.311 669.891 214.356 671.515C212.43 674.789 208.832 678.483 204.997 682.322C204.749 682.571 204.5 682.82 204.25 683.069C200.735 686.583 197.121 690.196 194.966 693.443Z" fill="#0047FF" stroke="#0047FF" stroke-width="3"/>
<path d="M270.338 690.502L270.528 690.555L270.701 690.648C273.294 692.037 276.157 693.66 279.181 695.375C284.942 698.641 291.285 702.237 297.447 705.17C302.119 707.394 306.56 709.17 310.408 710.084C314.299 711.009 317.289 710.982 319.316 709.963C324.054 707.583 327.59 703.162 327.2 697.971C326.813 692.815 322.502 686.31 310.114 679.792L309.913 679.685L309.749 679.534C309.526 679.327 309.306 679.123 309.087 678.92C299.239 669.788 294.002 664.933 288.255 662.243C282.479 659.54 276.066 658.986 263.409 658.986C255.217 658.986 250.43 660.679 247.994 662.988C245.632 665.225 245.215 668.305 246.498 671.818C249.114 678.984 258.645 687.25 270.338 690.502Z" fill="black" stroke="#0047FF" stroke-width="3"/>
<line x1="241.586" y1="98" x2="241.586" y2="116" stroke="#0047FF" stroke-width="3"/>
<rect x="242.086" y="101" width="27" height="13" fill="#0047FF"/>
<line x1="232.586" y1="167" x2="232.586" y2="329" stroke="#0047FF" stroke-width="3"/>
<rect x="320.086" y="397" width="33" height="6" fill="#0047FF"/>
<path d="M231.086 330H285.303L293.11 347.566L297.881 370.206L303.086 419H232.821L231.086 330Z" fill="#0047FF"/>
<path d="M217.656 16.1821L230.047 4.23825L240.612 2.3118L246.339 97.4102L238.907 97.4102L232.26 95.1665L223.854 88.6164L218.535 80.1402L212.784 66.655L211.014 51.2434L211.014 38.5289L217.656 16.1821Z" fill="#0047FF"/>
<path d="M354.082 403.5C361.627 429.087 352.584 469.5 348.584 469" stroke="#0047FF" stroke-width="3" stroke-linecap="round"/>
<path d="M320.586 405.5L323.474 417.912" stroke="#0047FF" stroke-width="3"/>
<path d="M323.583 418.152C319.65 427.172 313.217 435.614 315.151 439.938" stroke="#0047FF" stroke-width="3" stroke-linecap="round"/>
<path d="M346.826 467.707C347.656 467.881 348.221 468.669 348.088 469.467C347.955 470.265 347.175 470.771 346.346 470.597L346.826 467.707ZM333.694 426.672L333.081 425.288L335.864 424.248L336.478 425.632L333.694 426.672ZM346.346 470.597C345.014 470.318 344.111 469.336 343.503 468.325C342.884 467.298 342.405 465.976 342.002 464.514C341.194 461.579 340.583 457.65 339.938 453.378C338.631 444.712 337.153 434.476 333.694 426.672L336.478 425.632C340.138 433.891 341.66 444.579 342.948 453.109C343.601 457.435 344.186 461.172 344.938 463.899C345.314 465.266 345.706 466.273 346.107 466.939C346.518 467.622 346.783 467.698 346.826 467.707L346.346 470.597Z" fill="#0047FF"/>
<path d="M334.582 425.152C330.036 435.658 316.582 442 315.498 440.202" stroke="#0047FF" stroke-width="3" stroke-linecap="round"/>
<path d="M320.081 137C350.451 235.001 353.508 294.386 354.582 405" stroke="#0047FF" stroke-width="3"/>
<path d="M36.7129 262.501L21.0827 262.752L5.23996 263.003" stroke="#0047FF" stroke-width="3" stroke-linecap="square"/>
<path d="M36.5854 255.5L5.77633 255.951" stroke="#0047FF" stroke-width="3" stroke-linecap="round"/>
<rect x="3.61719" y="255.602" width="34.468" height="6" transform="rotate(-1 3.61719 255.602)" fill="#0047FF"/>
<path d="M8.12872 154.385L8.14862 154.375L8.15436 154.373L8.3556 154.296C8.52575 154.23 8.76195 154.139 9.02628 154.036C9.55106 153.832 10.2003 153.577 10.6616 153.386C11.2142 153.156 12.0026 152.928 12.7007 152.749C13.04 152.662 13.3406 152.591 13.5561 152.542C13.6636 152.518 13.7493 152.499 13.8073 152.487L13.8727 152.473L13.8872 152.469L13.8884 152.469L13.8917 152.469L13.8922 152.468L36.3346 147.98L80.2766 141.988L80.2886 141.986L165.666 131.741L152.331 192.227C135.676 195.592 121.172 195.353 106.92 195.119C103.303 195.059 99.7017 195 96.0859 195C91.2682 195 85.0373 194.324 78.5797 193.623C75.0856 193.244 71.5252 192.858 68.0862 192.568C63.2604 192.16 58.6842 191.947 55.0335 192.263C53.209 192.422 51.5422 192.717 50.162 193.226C48.7916 193.732 47.5527 194.504 46.8082 195.714L46.7956 195.735L46.7836 195.756C44.6243 199.535 43.8078 203.789 43.4055 208.304C43.2041 210.564 43.104 212.928 43.0026 215.351L42.9988 215.442C42.8981 217.847 42.7946 220.321 42.5907 222.881C42.0296 229.925 41.0954 236.703 40.2094 241.994C39.3154 247.334 38.4892 251.047 38.1629 252.026C37.7692 253.207 37.026 254.381 36.1228 255.02L5.01024 256.434L2.58594 207.463L2.58594 181.515L2.58597 181.514L2.58696 181.464L2.5909 181.272C2.59438 181.104 2.59956 180.857 2.60632 180.542C2.61985 179.912 2.63974 179.011 2.66517 177.926C2.71603 175.756 2.78903 172.853 2.87759 169.92C2.9662 166.985 3.07017 164.028 3.18281 161.746C3.23923 160.603 3.29719 159.642 3.35546 158.943C3.38477 158.591 3.41271 158.324 3.43814 158.139C3.44365 158.099 3.44859 158.067 3.45282 158.041C3.64407 157.667 3.75703 157.49 3.8305 157.388C3.89174 157.304 3.92607 157.266 4.00258 157.181C4.044 157.135 4.09777 157.075 4.17487 156.987C4.90189 156.154 5.08192 155.963 5.22474 155.854C5.3165 155.783 5.3702 155.757 5.61954 155.636C5.75185 155.571 5.93925 155.48 6.21664 155.341C7.02431 154.937 7.5238 154.687 7.82117 154.538L8.12872 154.385ZM3.46567 157.969C3.47082 157.945 3.47146 157.948 3.46551 157.97C3.46557 157.97 3.46562 157.97 3.46567 157.969Z" fill="black" stroke="#0047FF" stroke-width="3"/>
<path d="M349.114 395C344.405 394.81 339.746 394.883 336.036 395.001C330.409 395.179 325.891 395.304 322.78 395.384C321.331 395.422 320.188 395.449 319.38 395.468C315.826 352.433 310.274 324.577 297.093 291.446C305.36 265.758 313.304 232.809 318.454 203.494C321.047 188.738 322.936 174.877 323.8 163.309C324.068 159.71 324.24 156.314 324.3 153.171C327.704 166.728 332.512 187.206 337.32 211.788C347.435 263.504 357.53 333.286 354.606 395H354.605H354.601H354.596H354.592H354.588H354.584H354.58H354.576H354.571H354.567H354.563H354.559H354.555H354.551H354.546H354.542H354.538H354.534H354.53H354.525H354.521H354.517H354.513H354.509H354.504H354.5H354.496H354.492H354.488H354.483H354.479H354.475H354.471H354.467H354.462H354.458H354.454H354.45H354.446H354.441H354.437H354.433H354.429H354.425H354.42H354.416H354.412H354.408H354.403H354.399H354.395H354.391H354.387H354.382H354.378H354.374H354.37H354.366H354.361H354.357H354.353H354.349H354.344H354.34H354.336H354.332H354.327H354.323H354.319H354.315H354.311H354.306H354.302H354.298H354.294H354.289H354.285H354.281H354.277H354.272H354.268H354.264H354.26H354.256H354.251H354.247H354.243H354.239H354.234H354.23H354.226H354.222H354.217H354.213H354.209H354.205H354.2H354.196H354.192H354.188H354.184H354.179H354.175H354.171H354.167H354.162H354.158H354.154H354.15H354.146H354.141H354.137H354.133H354.129H354.124H354.12H354.116H354.112H354.107H354.103H354.099H354.095H354.091H354.086H354.082H354.078H354.074H354.07H354.065H354.061H354.057H354.053H354.048H354.044H354.04H354.036H354.032H354.027H354.023H354.019H354.015H354.011H354.006H354.002H353.998H353.994H353.99H353.985H353.981H353.977H353.973H353.969H353.964H353.96H353.956H353.952H353.948H353.944H353.939H353.935H353.931H353.927H353.923H353.919H353.914H353.91H353.906H353.902H353.898H353.894H353.889H353.885H353.881H353.877H353.873H353.869H353.864H353.86H353.856H353.852H353.848H353.844H353.84H353.835H353.831H353.827H353.823H353.819H353.815H353.811H353.807H353.802H353.798H353.794H353.79H353.786H353.782H353.778H353.774H353.77H353.766H353.761H353.757H353.753H353.749H353.745H353.741H353.737H353.733H353.729H353.725H353.721H353.717H353.712H353.708H353.704H353.7H353.696H353.692H353.688H353.684H353.68H353.676H353.672H353.668H353.664H353.66H353.656H353.652H353.648H353.644H353.64H353.636H353.632H353.628H353.624H353.62H353.616H353.612H353.608H353.604H353.6H353.596H353.592H353.588H353.584H349.114Z" fill="black" stroke="#0047FF" stroke-width="3"/>
<path d="M346.086 467C347.24 467.934 347.913 467.866 349.086 467L350.086 470C348.43 471.026 346.586 471 345.586 470C344.586 469 346.086 467 346.086 467Z" fill="#0047FF"/>
<rect x="219" y="101" width="21" height="12" fill="black"/>
<g clip-path="url(#clip0_420_267)">
<path d="M46.0993 311.8C45.7993 311.6 45.4993 311.7 45.2993 312C43.3993 314.3 44.4993 332.5 42.3993 347.3C40.5993 354.9 34.4993 352.3 33.5993 347L33.3993 346.5C28.4993 320.1 38.3993 308.6 26.7993 313.9C22.1993 316.4 5.59926 315.4 2.99926 307.4C-0.800743 291 4.19926 282.2 5.39926 265.5L36.2993 264.6C36.2993 280 52.4993 281 60.5993 309.7C61.7993 316.7 55.3993 319.6 45.9993 311.9L46.0993 311.8Z" fill="black"/>
<path d="M26.7969 313.9C38.2969 308.6 28.4969 320.1 33.3969 346.5" stroke="#0047FF" stroke-width="3" stroke-linecap="round"/>
<path d="M5.59736 263.5C5.59736 264.2 5.59736 264.8 5.49736 265.5C4.19736 282.2 -0.802638 291 2.99736 307.4" stroke="#0047FF" stroke-width="3"/>
<path d="M36.3984 262.7C36.3984 263.3 36.3984 264 36.3984 264.6C36.3984 280 52.5984 281 60.6984 309.7" stroke="#0047FF" stroke-width="3"/>
<path d="M45.8984 311.7C45.8984 311.7 45.9984 311.8 46.0984 311.8C55.4984 319.5 61.8984 316.7 60.6984 309.7" stroke="#0047FF" stroke-width="3" stroke-linecap="round"/>
<path d="M45.9969 311.9C45.6969 311.7 45.3969 311.8 45.1969 312C43.2969 314.3 44.3969 332.5 42.2969 347.3" stroke="#0047FF" stroke-width="3"/>
<path d="M33.5977 347C34.5977 352.3 40.6977 354.8 42.3977 347.3C42.3977 347.1 42.4977 346.8 42.5977 346.5" stroke="#0047FF" stroke-width="3" stroke-linecap="round"/>
<path d="M45.599 312.7C45.499 312.5 45.399 312.2 45.299 312C43.099 307 42.399 304 42.599 298.7" stroke="#0047FF" stroke-width="3" stroke-linecap="round"/>
<path d="M3.09766 307.4C5.59766 315.4 22.2977 316.4 26.8977 313.9" stroke="#0047FF" stroke-width="3" stroke-linecap="round"/>
<path d="M4.89844 265.5H5.39844L36.3984 264.5H37.9984" stroke="#0047FF" stroke-width="3"/>
</g>
<path d="M327.112 424.5L322.633 405.99L353.576 405.507C354.768 412.845 355.132 417.16 355.476 424.5H336.28C336.087 424.193 335.892 423.923 335.687 423.712C335.43 423.447 335.11 423.228 334.713 423.198C334.314 423.168 333.952 423.337 333.627 423.59C333.349 423.807 333.062 424.113 332.755 424.5H327.112Z" fill="black" stroke="black"/>
<path d="M316.57 437.134C319.866 429.542 322.029 425.214 325.74 417.802L332.956 424.116C331.055 427.674 329.277 430.24 327.035 432.409C324.725 434.645 321.9 436.482 317.885 438.54C317.478 438.683 317.174 438.765 316.948 438.789C316.717 438.813 316.653 438.767 316.639 438.755C316.62 438.739 316.547 438.661 316.515 438.367C316.485 438.089 316.499 437.691 316.57 437.134Z" fill="black" stroke="black"/>
<path d="M346.509 467.532C346.507 467.529 346.505 467.526 346.504 467.523L346.509 467.493L346.49 467.4C345.263 461.417 344.417 456.311 343.656 451.718C343.176 448.815 342.729 446.117 342.241 443.532C341.035 437.137 339.591 431.53 336.789 425.5H355.498C355.402 442.515 354.03 451.709 349.538 467.299C349.214 467.827 348.863 468.087 348.544 468.206C348.211 468.33 347.862 468.318 347.531 468.22C347.196 468.121 346.901 467.939 346.703 467.757C346.603 467.666 346.541 467.586 346.509 467.532ZM346.492 467.499C346.491 467.496 346.49 467.494 346.49 467.494C346.491 467.494 346.491 467.496 346.492 467.499Z" fill="black" stroke="black"/>
<defs>
<clipPath id="clip0_420_267">
<rect width="63" height="92" fill="white" transform="translate(0 262)"/>
</clipPath>
</defs>
</svg>
