<svg width="284" height="667" viewBox="0 0 284 667" fill="none" xmlns="http://www.w3.org/2000/svg">
<path d="M146.115 205.06L143.415 219.88H146.115V223.9H142.695L142.155 226.72H146.115V230.68H141.435L138.735 245.44H128.775L125.955 230.68H119.235L116.355 245.44H106.635L103.935 230.68H99.3754V226.72H103.215L102.735 223.9H99.3754V219.88H102.015L99.3154 205.06H106.935L109.155 219.88H115.815L118.635 205.06H126.795L129.615 219.88H136.455L138.855 205.06H146.115ZM122.655 213.22L121.335 219.88H123.915L122.655 213.22ZM109.755 223.9L110.175 226.72H114.495L115.035 223.9H109.755ZM120.015 226.72H125.235L124.695 223.9H120.555L120.015 226.72ZM135.315 226.72L135.795 223.9H130.335L130.875 226.72H135.315ZM112.095 239.26L113.715 230.68H110.775L112.095 239.26ZM133.275 239.26L134.655 230.68H131.655L133.275 239.26Z" fill="white"/>
<path d="M114.718 484.64C111.918 484.64 109.518 484.173 107.518 483.24C105.384 482.173 102.984 480.773 100.318 479.04C98.3178 477.707 96.7178 476.773 95.5178 476.24C94.3178 475.573 93.0511 475.24 91.7178 475.24C89.4511 475.24 87.5844 475.973 86.1178 477.44C84.5178 478.773 82.8511 481.04 81.1178 484.24L67.3178 477.44C69.9844 471.173 73.3178 466.173 77.3178 462.44C81.3178 458.573 85.9844 456.64 91.3178 456.64C94.2511 456.64 96.7844 457.107 98.9178 458.04C100.918 458.973 103.318 460.307 106.118 462.04C107.851 463.373 109.384 464.373 110.718 465.04C111.918 465.573 113.184 465.84 114.518 465.84C116.518 465.84 118.318 465.173 119.918 463.84C121.518 462.507 123.251 460.307 125.118 457.24L138.718 464.04C136.051 470.44 132.651 475.507 128.518 479.24C124.384 482.84 119.784 484.64 114.718 484.64Z" fill="white"/>
<path d="M103.697 363.98C102.337 363.98 101.177 363.52 100.217 362.6C99.2967 361.64 98.8367 360.48 98.8367 359.12C98.8367 357.8 99.2967 356.66 100.217 355.7C101.177 354.74 102.337 354.26 103.697 354.26C105.017 354.26 106.137 354.74 107.057 355.7C108.017 356.66 108.497 357.8 108.497 359.12C108.497 360.48 108.037 361.64 107.117 362.6C106.197 363.52 105.057 363.98 103.697 363.98ZM101.777 397.58C99.1367 397.58 96.8767 397.14 94.9967 396.26C93.1567 395.38 91.7567 394.2 90.7967 392.72C89.8767 391.24 89.4167 389.62 89.4167 387.86C89.4167 386.26 89.6967 384.9 90.2567 383.78C90.8167 382.62 91.4767 381.7 92.2367 381.02C93.0367 380.3 94.0967 379.48 95.4167 378.56C97.0567 377.48 98.2567 376.5 99.0167 375.62C99.8167 374.7 100.217 373.52 100.217 372.08V369.98H107.417V372.38C107.417 374.18 107.117 375.7 106.517 376.94C105.957 378.14 105.277 379.12 104.477 379.88C103.677 380.6 102.637 381.38 101.357 382.22C99.9967 383.1 98.9967 383.88 98.3567 384.56C97.7167 385.28 97.3967 386.18 97.3967 387.26C97.3967 388.58 97.8367 389.6 98.7167 390.32C99.6367 391.08 100.877 391.46 102.437 391.46C105.277 391.46 107.817 390.14 110.057 387.5L115.097 391.4C111.537 395.52 107.097 397.58 101.777 397.58Z" fill="white"/>
<path d="M276.057 354.98V408.62L269.277 409.58V360.56H263.157V408.62L256.377 409.58V380.12C251.777 379.96 248.297 378.74 245.937 376.46C243.577 374.18 242.397 371.2 242.397 367.52C242.397 363.56 243.757 360.48 246.477 358.28C249.197 356.08 252.957 354.98 257.757 354.98H276.057Z" fill="white"/>
<path d="M221.033 286.44C223.793 286.44 225.933 287.06 227.453 288.3C229.013 289.5 229.793 291.04 229.793 292.92C229.793 294.4 229.313 295.66 228.353 296.7C227.433 297.7 226.113 298.4 224.393 298.8C226.273 298.96 227.793 299.56 228.953 300.6C230.113 301.6 230.693 303.04 230.693 304.92C230.693 307.16 229.793 309.04 227.993 310.56C226.193 312.04 223.733 312.78 220.613 312.78C216.853 312.78 213.853 311.5 211.613 308.94L214.973 305.76C215.773 306.6 216.593 307.22 217.433 307.62C218.273 307.98 219.213 308.16 220.253 308.16C221.533 308.16 222.553 307.86 223.313 307.26C224.073 306.62 224.453 305.72 224.453 304.56C224.453 303.32 224.073 302.42 223.313 301.86C222.593 301.3 221.513 301.02 220.073 301.02H217.913L218.633 296.94H220.073C221.273 296.94 222.213 296.66 222.893 296.1C223.573 295.54 223.913 294.76 223.913 293.76C223.913 292.84 223.593 292.14 222.953 291.66C222.313 291.14 221.453 290.88 220.373 290.88C218.613 290.88 216.893 291.6 215.213 293.04L212.213 289.86C214.653 287.58 217.593 286.44 221.033 286.44ZM247.673 283.14L252.293 285.42L227.753 333.36L223.133 331.08L247.673 283.14ZM264.293 318.6V323.04H261.293V328.44H255.593L255.533 323.04H244.193V319.02L251.693 302.76L256.733 304.62L250.373 318.6H255.593L256.493 312.66H261.293V318.6H264.293Z" fill="white"/>
<path d="M252.699 232.26H250.599V232.32C250.599 240.8 249.399 247.1 246.999 251.22C244.639 255.3 240.739 257.34 235.299 257.34C231.939 257.34 229.199 256.38 227.079 254.46C224.959 252.54 223.899 249.74 223.899 246.06V235.38H231.339V246.18C231.339 249.78 232.739 251.58 235.539 251.58C237.219 251.58 238.559 250.98 239.559 249.78C240.599 248.58 241.359 246.6 241.839 243.84C242.359 241.04 242.619 237.22 242.619 232.38V232.26H236.379C231.819 232.26 228.419 231.34 226.179 229.5C223.979 227.66 222.879 225.16 222.879 222C222.879 220.04 223.399 218.24 224.439 216.6C225.479 214.92 226.939 213.6 228.819 212.64C230.699 211.64 232.819 211.14 235.179 211.14C239.619 211.14 243.079 212.5 245.559 215.22C248.079 217.9 249.659 221.76 250.299 226.8H252.699V232.26ZM242.379 226.86C241.979 223.34 241.199 220.8 240.039 219.24C238.879 217.68 237.279 216.9 235.239 216.9C233.639 216.9 232.359 217.36 231.399 218.28C230.479 219.2 230.019 220.38 230.019 221.82C230.019 223.5 230.579 224.78 231.699 225.66C232.859 226.5 234.479 226.9 236.559 226.86H242.379Z" fill="white"/>
<path d="M142.087 307.8C144.767 307.8 146.887 308.52 148.447 309.96C150.047 311.4 151.127 313.68 151.687 316.8L152.947 308.7H159.667L155.887 325.14L157.447 332.22C157.687 333.14 158.047 333.84 158.527 334.32C159.007 334.8 159.687 335.16 160.567 335.4L158.047 341.34C156.367 341.14 154.967 340.56 153.847 339.6C152.727 338.64 152.007 337.34 151.687 335.7L151.207 333C150.207 335.68 148.907 337.74 147.307 339.18C145.747 340.62 143.747 341.34 141.307 341.34C137.587 341.34 134.667 339.94 132.547 337.14C130.467 334.3 129.427 330.2 129.427 324.84C129.427 321.52 129.907 318.58 130.867 316.02C131.867 313.42 133.327 311.4 135.247 309.96C137.167 308.52 139.447 307.8 142.087 307.8ZM142.927 313.56C141.167 313.56 139.787 314.52 138.787 316.44C137.827 318.32 137.347 321.12 137.347 324.84C137.347 332 139.127 335.58 142.687 335.58C144.247 335.58 145.607 334.76 146.767 333.12C147.967 331.48 148.967 328.52 149.767 324.24C149.047 320.24 148.167 317.46 147.127 315.9C146.087 314.34 144.687 313.56 142.927 313.56ZM140.107 291.18C141.267 291.18 142.247 291.58 143.047 292.38C143.847 293.14 144.247 294.1 144.247 295.26C144.247 295.9 144.127 296.56 143.887 297.24C143.687 297.88 143.267 298.84 142.627 300.12L139.987 305.58H135.967L137.647 298.62C136.487 297.74 135.907 296.62 135.907 295.26C135.907 294.1 136.307 293.14 137.107 292.38C137.907 291.58 138.907 291.18 140.107 291.18ZM147.847 291.36L154.387 292.98L149.647 305.88L145.087 304.86L147.847 291.36ZM147.427 352.26C145.107 352.26 143.287 351.62 141.967 350.34C140.687 349.06 140.047 347.36 140.047 345.24V342.9H145.867V345.12C145.867 346.76 146.687 347.58 148.327 347.58C148.927 347.58 149.467 347.5 149.947 347.34C150.427 347.18 150.947 346.94 151.507 346.62L153.787 350.1C152.907 350.74 151.967 351.26 150.967 351.66C149.967 352.06 148.787 352.26 147.427 352.26Z" fill="white"/>
<path d="M47.7501 302.08C51.9101 302.08 55.5901 302.96 58.7901 304.72C61.9901 306.44 64.4901 308.92 66.2901 312.16C68.0901 315.4 68.9901 319.24 68.9901 323.68C68.9901 328 68.0901 331.8 66.2901 335.08C64.4901 338.36 61.9701 340.9 58.7301 342.7C55.5301 344.46 51.8701 345.34 47.7501 345.34C43.5901 345.34 39.8901 344.48 36.6501 342.76C33.4501 341 30.9501 338.5 29.1501 335.26C27.3501 331.98 26.4501 328.12 26.4501 323.68C26.4501 319.4 27.3501 315.62 29.1501 312.34C30.9501 309.06 33.4701 306.54 36.7101 304.78C39.9501 302.98 43.6301 302.08 47.7501 302.08ZM47.7501 307.72C43.4701 307.72 40.0901 309.06 37.6101 311.74C35.1701 314.38 33.9501 318.36 33.9501 323.68C33.9501 329.04 35.1901 333.06 37.6701 335.74C40.1501 338.38 43.5101 339.7 47.7501 339.7C52.0701 339.7 55.4301 338.38 57.8301 335.74C60.2701 333.1 61.4901 329.08 61.4901 323.68C61.4901 318.36 60.2501 314.38 57.7701 311.74C55.3301 309.06 51.9901 307.72 47.7501 307.72ZM47.8701 319.3C49.1901 319.3 50.2701 319.72 51.1101 320.56C51.9501 321.4 52.3701 322.44 52.3701 323.68C52.3701 324.88 51.9501 325.9 51.1101 326.74C50.2701 327.58 49.1901 328 47.8701 328C46.5501 328 45.4701 327.58 44.6301 326.74C43.7901 325.9 43.3701 324.88 43.3701 323.68C43.3701 322.44 43.7901 321.4 44.6301 320.56C45.4701 319.72 46.5501 319.3 47.8701 319.3Z" fill="white"/>
<path d="M97.4106 56.4399H89.0706L82.5906 42.2799H81.3306V56.4399H72.6306V65.9199H67.0506L66.0306 56.4399H51.4506L50.4306 65.9199H44.8506V50.6199H46.9506C47.7906 50.0599 48.4506 49.3799 48.9306 48.5799C49.4506 47.7399 49.9106 46.3399 50.3106 44.3799C50.7506 42.4199 51.1106 39.5999 51.3906 35.9199L52.2306 24.6999H69.3906V37.2399H74.0706V24.6999H81.3306V37.2999H82.7706L88.8306 24.6999H96.4506L88.8906 39.3999L97.4106 56.4399ZM62.3106 30.0999H58.7106L58.3506 35.1399C58.0706 38.5799 57.7306 41.2799 57.3306 43.2399C56.9306 45.1999 56.3906 46.7399 55.7106 47.8599C55.0706 48.9399 54.1706 49.8599 53.0106 50.6199H62.3106V30.0999ZM74.0706 50.6199V42.3399H69.3906V50.6199H74.0706Z" fill="white"/>
<path d="M202.319 397.74C204.479 397.74 206.239 398.36 207.599 399.6C208.959 400.8 209.639 402.46 209.639 404.58C209.639 407.38 208.599 409.54 206.519 411.06C204.479 412.58 201.859 413.34 198.659 413.34C194.539 413.34 191.159 412.2 188.519 409.92C186.479 411.12 184.659 411.98 183.059 412.5C181.459 413.06 179.819 413.34 178.139 413.34C171.499 413.3 168.179 409.84 168.179 402.96V386.22H163.199V380.7H168.179V373.68L175.859 372.78V380.7H183.239L182.459 386.22H175.859V402.78C175.859 404.34 176.159 405.46 176.759 406.14C177.359 406.82 178.379 407.16 179.819 407.16C181.499 407.16 183.359 406.74 185.399 405.9C184.079 403.38 183.419 400.36 183.419 396.84C183.419 393.48 184.019 390.52 185.219 387.96C186.419 385.36 188.139 383.36 190.379 381.96C192.619 380.52 195.239 379.8 198.239 379.8C200.319 379.8 202.179 380.1 203.819 380.7C205.499 381.3 207.079 382.24 208.559 383.52L205.079 388.2C204.039 387.4 203.019 386.82 202.019 386.46C201.019 386.06 199.939 385.86 198.779 385.86C193.979 385.86 191.579 389.48 191.579 396.72C191.579 398.84 191.779 400.62 192.179 402.06C193.899 400.58 195.559 399.5 197.159 398.82C198.799 398.1 200.519 397.74 202.319 397.74ZM199.559 407.46C202.399 407.46 203.819 406.46 203.819 404.46C203.819 403.06 203.099 402.36 201.659 402.36C200.699 402.36 199.679 402.62 198.599 403.14C197.519 403.66 196.139 404.58 194.459 405.9C195.739 406.94 197.439 407.46 199.559 407.46Z" fill="white"/>
<path d="M43.9704 162.38C43.9704 167.42 42.5504 171.24 39.7104 173.84C36.9104 176.4 32.9904 177.86 27.9504 178.22V189.68L20.6304 190.52V178.28C15.3904 177.92 11.4904 176.62 8.93043 174.38C6.37043 172.14 5.09043 169.1 5.09043 165.26V145.7H12.6504V164.78C12.6504 167.18 13.2504 169.02 14.4504 170.3C15.6904 171.58 17.7504 172.36 20.6304 172.64V145.7H27.9504V172.58C30.8304 172.26 32.9504 171.24 34.3104 169.52C35.6704 167.8 36.3504 165.3 36.3504 162.02C36.3504 156.7 35.8304 151.26 34.7904 145.7H42.3504C43.4304 151.38 43.9704 156.94 43.9704 162.38Z" fill="white"/>
</svg>
