<svg width="2480" height="1750" viewBox="0 0 2480 1750" fill="none" xmlns="http://www.w3.org/2000/svg">
<g clip-path="url(#clip0_341_16)">
<rect width="2480" height="1750" fill="#0047FF"/>
<rect x="469" y="380" width="1542.31" height="990" stroke="black" stroke-width="30"/>
<path d="M631.508 854V506H852.508L842.008 577.5H734.508V653.5H829.008V725H734.508V854H631.508ZM959.988 587V854H860.988V587H959.988ZM910.488 439.5C926.488 439.5 939.655 444.667 949.988 455C960.655 465 965.988 477.5 965.988 492.5C965.988 507.5 960.655 520.167 949.988 530.5C939.655 540.5 926.488 545.5 910.488 545.5C894.488 545.5 881.155 540.5 870.488 530.5C860.155 520.167 854.988 507.5 854.988 492.5C854.988 477.5 860.155 465 870.488 455C881.155 444.667 894.488 439.5 910.488 439.5ZM1164.1 578.5C1172.77 578.5 1181.77 580 1191.1 583L1175.6 678.5C1166.6 675.833 1158.43 674.5 1151.1 674.5C1136.43 674.5 1125.43 679.333 1118.1 689C1111.1 698.667 1105.43 713.167 1101.1 732.5V854H1002.1V587H1088.6L1096.6 637C1102.27 619.333 1111.27 605.167 1123.6 594.5C1135.93 583.833 1149.43 578.5 1164.1 578.5ZM1420.6 767.5C1420.6 776.833 1421.77 783.833 1424.1 788.5C1426.43 792.833 1430.6 796.167 1436.6 798.5L1416.6 862C1398.6 860.667 1383.93 857.333 1372.6 852C1361.27 846.333 1351.93 837.333 1344.6 825C1327.27 851 1300.43 864 1264.1 864C1237.77 864 1216.43 856.167 1200.1 840.5C1184.1 824.5 1176.1 804 1176.1 779C1176.1 749.333 1187.1 726.667 1209.1 711C1231.1 695.333 1263.1 687.5 1305.1 687.5H1324.1V681C1324.1 667.667 1321.43 658.667 1316.1 654C1310.77 649.333 1300.6 647 1285.6 647C1277.6 647 1267.27 648.333 1254.6 651C1242.27 653.333 1229.6 656.667 1216.6 661L1195.1 598C1211.43 591.333 1229.1 586.167 1248.1 582.5C1267.43 578.833 1284.93 577 1300.6 577C1342.6 577 1373.1 585.167 1392.1 601.5C1411.1 617.5 1420.6 642.167 1420.6 675.5V767.5ZM1294.6 794.5C1300.6 794.5 1306.1 793 1311.1 790C1316.43 787 1320.77 783.167 1324.1 778.5V739H1313.6C1299.6 739 1289.27 741.5 1282.6 746.5C1275.93 751.5 1272.6 759.167 1272.6 769.5C1272.6 777.167 1274.6 783.333 1278.6 788C1282.6 792.333 1287.93 794.5 1294.6 794.5Z" fill="white"/>
<path d="M915.975 874C968.975 874 1011.81 889.833 1044.47 921.5L998.975 975C975.641 956.333 950.808 947 924.475 947C912.141 947 902.808 949.167 896.475 953.5C890.141 957.833 886.975 964 886.975 972C886.975 978 888.641 983 891.975 987C895.641 990.667 901.475 994.167 909.475 997.5C917.808 1000.83 931.141 1005.5 949.475 1011.5C986.141 1023.17 1012.47 1037.83 1028.47 1055.5C1044.81 1073.17 1052.97 1097.33 1052.97 1128C1052.97 1150.33 1046.97 1170.17 1034.97 1187.5C1023.31 1204.5 1006.47 1217.83 984.475 1227.5C962.475 1237.17 936.475 1242 906.475 1242C875.808 1242 848.808 1237.17 825.475 1227.5C802.141 1217.83 782.475 1205.17 766.475 1189.5L816.975 1134C843.308 1156.67 871.808 1168 902.475 1168C916.808 1168 927.641 1165.17 934.975 1159.5C942.308 1153.5 945.975 1145.83 945.975 1136.5C945.975 1129.5 944.308 1123.67 940.975 1119C937.975 1114.33 932.475 1110 924.475 1106C916.475 1102 904.808 1097.67 889.475 1093C849.141 1080.33 820.975 1065.17 804.975 1047.5C788.975 1029.5 780.975 1007.17 780.975 980.5C780.975 958.833 786.808 940 798.475 924C810.141 908 826.141 895.667 846.475 887C867.141 878.333 890.308 874 915.975 874ZM1312.42 1145.5C1312.42 1154.83 1313.59 1161.83 1315.92 1166.5C1318.25 1170.83 1322.42 1174.17 1328.42 1176.5L1308.42 1240C1290.42 1238.67 1275.75 1235.33 1264.42 1230C1253.09 1224.33 1243.75 1215.33 1236.42 1203C1219.09 1229 1192.25 1242 1155.92 1242C1129.59 1242 1108.25 1234.17 1091.92 1218.5C1075.92 1202.5 1067.92 1182 1067.92 1157C1067.92 1127.33 1078.92 1104.67 1100.92 1089C1122.92 1073.33 1154.92 1065.5 1196.92 1065.5H1215.92V1059C1215.92 1045.67 1213.25 1036.67 1207.92 1032C1202.59 1027.33 1192.42 1025 1177.42 1025C1169.42 1025 1159.09 1026.33 1146.42 1029C1134.09 1031.33 1121.42 1034.67 1108.42 1039L1086.92 976C1103.25 969.333 1120.92 964.167 1139.92 960.5C1159.25 956.833 1176.75 955 1192.42 955C1234.42 955 1264.92 963.167 1283.92 979.5C1302.92 995.5 1312.42 1020.17 1312.42 1053.5V1145.5ZM1186.42 1172.5C1192.42 1172.5 1197.92 1171 1202.92 1168C1208.25 1165 1212.59 1161.17 1215.92 1156.5V1117H1205.42C1191.42 1117 1181.09 1119.5 1174.42 1124.5C1167.75 1129.5 1164.42 1137.17 1164.42 1147.5C1164.42 1155.17 1166.42 1161.33 1170.42 1166C1174.42 1170.33 1179.75 1172.5 1186.42 1172.5ZM1531.31 955C1553.64 955 1571.14 962 1583.81 976C1596.81 990 1603.31 1009.67 1603.31 1035V1232H1504.31V1053C1504.31 1043 1502.98 1036.17 1500.31 1032.5C1497.98 1028.83 1494.31 1027 1489.31 1027C1478.31 1027 1467.14 1035.83 1455.81 1053.5V1232H1356.81V965H1443.31L1450.31 992.5C1462.64 979.5 1475.14 970 1487.81 964C1500.81 958 1515.31 955 1531.31 955ZM1749.94 955C1769.61 955 1788.44 958.167 1806.44 964.5C1824.78 970.5 1840.11 978.833 1852.44 989.5L1817.44 1043C1807.78 1037 1797.44 1032.33 1786.44 1029C1775.44 1025.33 1764.61 1023.5 1753.94 1023.5C1738.94 1023.5 1731.44 1027.5 1731.44 1035.5C1731.44 1038.83 1732.44 1041.67 1734.44 1044C1736.44 1046 1741.11 1048.67 1748.44 1052C1756.11 1055 1768.28 1059 1784.94 1064C1811.61 1072.33 1831.28 1083 1843.94 1096C1856.94 1108.67 1863.44 1126.67 1863.44 1150C1863.44 1168 1857.94 1184 1846.94 1198C1836.28 1212 1821.28 1222.83 1801.94 1230.5C1782.94 1238.17 1761.28 1242 1736.94 1242C1713.61 1242 1691.61 1238.33 1670.94 1231C1650.61 1223.33 1633.44 1212.83 1619.44 1199.5L1666.44 1147.5C1676.44 1155.5 1687.28 1162 1698.94 1167C1710.94 1171.67 1722.78 1174 1734.44 1174C1743.44 1174 1750.28 1172.67 1754.94 1170C1759.94 1167 1762.44 1162.83 1762.44 1157.5C1762.44 1152.83 1761.28 1149.33 1758.94 1147C1756.94 1144.33 1752.61 1141.83 1745.94 1139.5C1739.28 1136.83 1727.61 1133 1710.94 1128C1659.28 1112.67 1633.44 1083.83 1633.44 1041.5C1633.44 1025.17 1637.94 1010.5 1646.94 997.5C1656.28 984.5 1669.61 974.167 1686.94 966.5C1704.61 958.833 1725.61 955 1749.94 955Z" fill="white"/>
<line x1="265.678" y1="502.152" x2="621.114" y2="253.273" stroke="#E11D0B" stroke-width="30"/>
<line x1="190.51" y1="647.951" x2="845.831" y2="189.09" stroke="#E11D0B" stroke-width="30"/>
<rect x="2240" y="15" width="367" height="455" transform="rotate(90 2240 15)" fill="white" stroke="black" stroke-width="30"/>
<rect x="2465" y="382" width="570" height="452" transform="rotate(90 2465 382)" fill="white" stroke="black" stroke-width="30"/>
<rect x="1427" y="15" width="366" height="198" transform="rotate(90 1427 15)" fill="black" stroke="black" stroke-width="30"/>
<rect x="1784" y="15" width="129" height="356" transform="rotate(90 1784 15)" fill="#0047FF" stroke="black" stroke-width="30"/>
<rect x="1784" y="174" width="207" height="356" transform="rotate(90 1784 174)" fill="#E11D0B" stroke="black" stroke-width="30"/>
<rect x="1144" y="1370" width="139" height="288" transform="rotate(90 1144 1370)" fill="#FDCF07" stroke="black" stroke-width="30"/>
<rect x="1144" y="1510" width="225" height="288" transform="rotate(90 1144 1510)" fill="white" stroke="black" stroke-width="30"/>
<rect x="586" y="1653" width="83" height="147" transform="rotate(90 586 1653)" fill="white" stroke="black" stroke-width="30"/>
<rect x="167" y="1370" width="365" height="152" transform="rotate(90 167 1370)" fill="white" stroke="black" stroke-width="30"/>
<rect x="439" y="1370" width="366" height="274" transform="rotate(90 439 1370)" fill="#FDCF07" stroke="black" stroke-width="30"/>
<rect x="470" y="811" width="559" height="455" transform="rotate(90 470 811)" fill="#FDCF07" stroke="black" stroke-width="30"/>
<rect x="857" y="1370" width="365" height="272" transform="rotate(90 857 1370)" fill="#E11D0B" stroke="black" stroke-width="30"/>
<rect x="585" y="1370" width="283" height="146" transform="rotate(90 585 1370)" fill="#0047FF" stroke="black" stroke-width="30"/>
<rect x="2465" y="15" width="367" height="223" transform="rotate(90 2465 15)" fill="#FDCF07" stroke="black" stroke-width="30"/>
<path d="M2197 1474.5C2197 1561.72 2124.57 1633 2034.5 1633C1944.43 1633 1872 1561.72 1872 1474.5C1872 1387.28 1944.43 1316 2034.5 1316C2124.57 1316 2197 1387.28 2197 1474.5Z" stroke="#E11D0B" stroke-width="30"/>
<path d="M2267.5 1020.61L1954.91 1499.65L1773.96 1304.27L2267.5 1020.61Z" fill="black"/>
</g>
<defs>
<clipPath id="clip0_341_16">
<rect width="2480" height="1750" fill="white"/>
</clipPath>
</defs>
</svg>
