<svg width="401" height="803" viewBox="0 0 401 803" fill="none" xmlns="http://www.w3.org/2000/svg">
<line x1="286.442" y1="8.69185" x2="278.783" y2="34.5828" stroke="white" stroke-width="3"/>
<line x1="280.688" y1="6.98995" x2="273.029" y2="32.8809" stroke="white" stroke-width="3"/>
<path d="M241.695 591.809L203.031 780.221L10.5147 723.272L77.2191 543.126L77.2263 543.107L77.233 543.087L125.318 401.32L125.322 401.309L125.326 401.298L231.549 71.1864L364.44 110.497L276.23 445.948L276.225 445.966L276.221 445.984L241.704 591.765L241.699 591.787L241.695 591.809Z" fill="black" stroke="white" stroke-width="3"/>
<path d="M7.16423 725.41L204.703 783.845C204.967 783.924 205.119 784.202 205.04 784.466L200.502 799.809C200.423 800.074 200.145 800.225 199.88 800.147L2.34195 741.712C2.07715 741.634 1.92599 741.356 2.00432 741.091L6.54293 725.748C6.62127 725.483 6.89943 725.332 7.16423 725.41Z" fill="black" stroke="white" stroke-width="3"/>
<path d="M235.174 69.1307L274.059 54.5624L334.831 72.5397L362.001 106.648L235.174 69.1307Z" fill="black" stroke="white" stroke-width="3"/>
<path d="M279.423 39.4652L338.397 56.9105L334.709 69.3765L275.735 51.9312L279.423 39.4652Z" fill="black" stroke="white" stroke-width="3"/>
<rect x="268.65" y="1.86388" width="102" height="30" rx="1.5" transform="rotate(16.479 268.65 1.86388)" fill="black" stroke="white" stroke-width="3"/>
<line x1="279.731" y1="6.70601" x2="272.072" y2="32.597" stroke="white" stroke-width="3"/>
<line x1="285.485" y1="8.40767" x2="277.826" y2="34.2986" stroke="white" stroke-width="3"/>
<line x1="273.977" y1="5.00386" x2="266.319" y2="30.8948" stroke="white" stroke-width="3"/>
<line x1="291.235" y1="10.1101" x2="283.576" y2="36.001" stroke="white" stroke-width="3"/>
<line x1="337.267" y1="23.7258" x2="329.608" y2="49.6167" stroke="white" stroke-width="3"/>
<line x1="331.513" y1="22.0239" x2="323.854" y2="47.9148" stroke="white" stroke-width="3"/>
<line x1="354.524" y1="28.8317" x2="346.865" y2="54.7227" stroke="white" stroke-width="3"/>
<line x1="348.77" y1="27.1301" x2="341.112" y2="53.021" stroke="white" stroke-width="3"/>
<line x1="360.278" y1="30.5339" x2="352.619" y2="56.4248" stroke="white" stroke-width="3"/>
<line x1="343.02" y1="25.4277" x2="335.362" y2="51.3186" stroke="white" stroke-width="3"/>
<line x1="308.497" y1="15.2158" x2="300.838" y2="41.1067" stroke="white" stroke-width="3"/>
<line x1="302.743" y1="13.5139" x2="295.084" y2="39.4048" stroke="white" stroke-width="3"/>
<line x1="296.989" y1="11.812" x2="289.33" y2="37.7029" stroke="white" stroke-width="3"/>
<line x1="325.759" y1="20.322" x2="318.1" y2="46.2129" stroke="white" stroke-width="3"/>
<line x1="320.005" y1="18.6201" x2="312.346" y2="44.511" stroke="white" stroke-width="3"/>
<line x1="314.251" y1="16.9179" x2="306.592" y2="42.8089" stroke="white" stroke-width="3"/>
<path d="M127.133 406.335L177.946 247.213L314.643 287.65L271.858 449.147L127.133 406.335Z" fill="white" stroke="white" stroke-width="3"/>
<path d="M232.136 286.273L231.451 288.589L217.004 306.58L214.463 304.807L228.27 287.867L218.336 284.929L219.081 282.411L232.136 286.273ZM247.049 290.685L246.364 293.001L231.917 310.992L229.376 309.218L243.183 292.279L233.249 289.34L233.994 286.823L247.049 290.685ZM261.962 295.096L261.277 297.412L246.83 315.403L244.289 313.629L258.096 296.69L248.162 293.751L248.906 291.234L261.962 295.096Z" fill="black"/>
<path d="M201.004 356.728L196.607 360.817L198.168 367.385L196.48 366.886L195.184 361.113L193.742 360.687L192.276 365.642L190.819 365.211L193.946 354.64L195.403 355.071L194.096 359.49L195.554 359.921L199.469 356.274L201.004 356.728ZM205.758 358.134C207.067 358.521 207.998 359.097 208.551 359.861C209.106 360.615 209.224 361.534 208.903 362.619C208.561 363.774 207.933 364.523 207.02 364.865C206.107 365.206 205.032 365.194 203.794 364.828L202.459 364.433L201.311 368.315L199.854 367.884L202.981 357.313L205.758 358.134ZM204.073 363.659C204.922 363.91 205.615 363.937 206.152 363.74C206.699 363.546 207.098 363.024 207.349 362.175C207.573 361.419 207.509 360.805 207.159 360.334C206.819 359.866 206.235 359.51 205.407 359.265L204.102 358.879L202.8 363.283L204.073 363.659ZM213.485 371.916L213.473 369.026L209.468 367.841L207.885 370.26L206.412 369.824L212.93 360.256L214.771 360.801L215.02 372.37L213.485 371.916ZM210.171 366.764L213.469 367.74L213.462 361.731L210.171 366.764ZM223.379 363.147C224.013 363.334 224.521 363.573 224.902 363.864C225.294 364.158 225.66 364.555 226.001 365.057L224.926 365.757C224.436 365.044 223.833 364.582 223.117 364.371C222.237 364.11 221.427 364.238 220.685 364.752C219.953 365.27 219.367 366.276 218.925 367.769C218.495 369.221 218.444 370.374 218.77 371.227C219.099 372.07 219.703 372.621 220.583 372.881C221.033 373.014 221.449 373.054 221.832 373.001C222.215 372.947 222.637 372.838 223.097 372.674L223.546 373.808C223.119 374.048 222.616 374.206 222.038 374.279C221.46 374.353 220.839 374.292 220.174 374.095C219.315 373.841 218.609 373.404 218.058 372.785C217.521 372.159 217.184 371.381 217.047 370.45C216.924 369.513 217.033 368.466 217.375 367.311C217.717 366.155 218.204 365.225 218.834 364.522C219.468 363.808 220.179 363.34 220.968 363.118C221.757 362.895 222.561 362.905 223.379 363.147ZM235.27 366.864L230.874 370.953L232.434 377.522L230.747 377.022L229.451 371.25L228.009 370.823L226.543 375.779L225.085 375.348L228.212 364.777L229.67 365.208L228.363 369.626L229.82 370.058L233.736 366.41L235.27 366.864ZM239.751 379.686L239.738 376.796L235.734 375.611L234.151 378.029L232.678 377.594L239.196 368.026L241.037 368.57L241.285 380.14L239.751 379.686ZM236.436 374.534L239.735 375.51L239.727 369.501L236.436 374.534ZM146.478 385.516L148.012 392.176L146.355 391.686L145.3 386.285L141.445 390.234L139.88 389.771L144.722 385.079L143.284 379.281L144.941 379.771L145.898 384.376L149.221 381.038L150.786 381.501L146.478 385.516ZM154.227 390.911C153.745 391.525 153.291 391.986 152.867 392.294C152.442 392.602 151.983 392.8 151.49 392.888C150.997 392.976 150.407 392.974 149.723 392.882L149.821 391.76C150.579 391.829 151.173 391.776 151.603 391.603C152.035 391.42 152.459 391.039 152.875 390.461L152.338 390.302L151.216 381.628L152.735 382.077L153.568 389.698L158.105 383.666L159.578 384.101L154.227 390.911ZM165.069 395.92L164.034 399.418L162.883 399.078L163.334 396.709L157.243 394.907L156.332 397.14L155.181 396.8L156.216 393.302L156.937 393.515C157.292 393.331 157.602 393.055 157.866 392.688C158.14 392.325 158.428 391.82 158.73 391.175C159.046 390.523 159.576 389.351 160.321 387.658L161.613 384.703L166.983 386.292L164.21 395.666L165.069 395.92ZM165.171 387.057L162.532 386.277L161.746 388.146C161.095 389.667 160.602 390.772 160.264 391.462C159.937 392.155 159.612 392.688 159.291 393.06C158.98 393.435 158.604 393.708 158.165 393.878L162.752 395.235L165.171 387.057ZM173.885 388.133C174.775 388.397 175.489 388.841 176.027 389.468C176.578 390.087 176.916 390.86 177.042 391.787C177.179 392.717 177.075 393.765 176.73 394.931C176.391 396.077 175.911 397.003 175.29 397.709C174.68 398.419 173.974 398.888 173.172 399.118C172.38 399.351 171.539 399.336 170.649 399.073C169.759 398.809 169.039 398.368 168.488 397.749C167.947 397.133 167.608 396.36 167.472 395.43C167.346 394.503 167.454 393.461 167.796 392.305C168.131 391.17 168.606 390.242 169.219 389.523C169.843 388.806 170.556 388.333 171.358 388.103C172.163 387.863 173.005 387.873 173.885 388.133ZM173.531 389.33C172.611 389.058 171.792 389.194 171.074 389.738C170.357 390.282 169.781 391.291 169.345 392.764C168.912 394.226 168.85 395.376 169.159 396.213C169.478 397.052 170.093 397.607 171.003 397.876C172.947 398.451 174.339 397.317 175.18 394.473C176.024 391.619 175.475 389.905 173.531 389.33ZM191.164 393.445L186.905 397.574L188.328 404.102L186.686 403.617L185.529 397.885L184.271 397.513L182.805 402.468L181.408 402.055L182.874 397.1L181.601 396.723L177.496 400.898L175.885 400.421L180.63 395.718L179.304 389.936L180.869 390.399L181.97 395.531L183.228 395.903L184.535 391.484L185.932 391.897L184.625 396.316L185.883 396.688L189.629 392.991L191.164 393.445ZM198.793 395.702L198.28 396.818L194.183 395.606L193.162 399.058L196.721 400.111L196.377 401.277L192.817 400.224L191.746 403.845L196.134 405.143L195.789 406.309L189.943 404.58L193.071 394.009L198.793 395.702ZM204.854 397.294C205.488 397.482 205.995 397.721 206.377 398.012C206.768 398.305 207.134 398.703 207.475 399.204L206.401 399.904C205.911 399.192 205.308 398.73 204.592 398.518C203.712 398.258 202.901 398.385 202.159 398.9C201.428 399.418 200.841 400.423 200.399 401.917C199.97 403.369 199.918 404.522 200.244 405.375C200.573 406.217 201.178 406.769 202.057 407.029C202.507 407.162 202.924 407.202 203.307 407.148C203.69 407.095 204.111 406.986 204.571 406.822L205.02 407.955C204.593 408.196 204.09 408.353 203.512 408.427C202.934 408.501 202.313 408.439 201.648 408.243C200.789 407.989 200.084 407.552 199.533 406.933C198.995 406.307 198.658 405.528 198.522 404.598C198.398 403.661 198.508 402.614 198.85 401.458C199.192 400.302 199.678 399.373 200.309 398.67C200.943 397.956 201.654 397.488 202.443 397.265C203.232 397.042 204.035 397.052 204.854 397.294ZM215.782 400.727L215.26 401.924L212.33 401.058L209.571 410.386L208.113 409.955L210.872 400.626L207.865 399.737L208.233 398.494L215.782 400.727ZM220.652 407.591C221.342 407.928 221.855 408.358 222.19 408.88C222.525 409.402 222.571 410.072 222.329 410.89C221.736 412.895 220.044 413.484 217.251 412.658L214.336 411.796L217.463 401.225L219.964 401.964C221.304 402.361 222.262 402.883 222.837 403.532C223.423 404.183 223.583 404.959 223.317 405.859C223.135 406.473 222.79 406.927 222.28 407.221C221.78 407.518 221.238 407.642 220.652 407.591ZM218.58 402.806L217.595 406.136L219.191 406.608C219.805 406.789 220.35 406.789 220.826 406.608C221.313 406.429 221.636 406.069 221.797 405.527C221.978 404.913 221.894 404.426 221.544 404.067C221.205 403.711 220.616 403.409 219.777 403.16L218.58 402.806ZM217.596 411.492C218.455 411.746 219.148 411.812 219.673 411.689C220.209 411.57 220.583 411.152 220.795 410.436C221.001 409.741 220.929 409.174 220.58 408.737C220.231 408.3 219.704 407.977 218.998 407.769L217.264 407.256L216.139 411.061L217.596 411.492ZM232.521 405.679L232.007 406.795L227.91 405.583L226.889 409.035L230.449 410.088L230.104 411.254L226.544 410.201L225.473 413.822L229.861 415.12L229.516 416.286L223.671 414.557L226.798 403.986L232.521 405.679ZM237.788 418.733L239.254 413.778L234.805 412.461L233.339 417.417L231.881 416.986L235.008 406.415L236.466 406.846L235.159 411.265L239.608 412.581L240.915 408.162L242.373 408.593L239.246 419.164L237.788 418.733ZM248.217 421.818L249.683 416.862L245.233 415.546L243.767 420.502L242.31 420.071L245.437 409.5L246.894 409.931L245.587 414.349L250.037 415.666L251.344 411.247L252.801 411.678L249.674 422.249L248.217 421.818ZM258.369 424.821L258.356 421.931L254.352 420.746L252.769 423.165L251.296 422.729L257.814 413.161L259.655 413.705L259.903 425.275L258.369 424.821ZM255.054 419.669L258.353 420.645L258.345 414.636L255.054 419.669ZM270.889 417.029L267.762 427.6L266.305 427.169L267.535 423.011L265.387 422.375L262.116 425.93L260.459 425.44L264.068 421.702C263.478 421.249 263.084 420.721 262.885 420.117C262.695 419.516 262.7 418.878 262.9 418.203C263.206 417.17 263.784 416.473 264.636 416.113C265.491 415.743 266.578 415.753 267.897 416.144L270.889 417.029ZM267.875 421.86L269.096 417.733L267.654 417.306C266.743 417.037 266.032 417.016 265.52 417.243C265.018 417.472 264.662 417.945 264.45 418.661C264.253 419.326 264.294 419.883 264.573 420.333C264.862 420.785 265.328 421.107 265.973 421.297L267.875 421.86Z" fill="black"/>
<path d="M179.554 382.736L176.05 381.7L177.225 377.411C177.312 377.074 177.454 376.571 177.652 375.904C177.999 374.73 178.38 373.61 178.796 372.544L175.026 380.083L171.66 379.087L172.495 370.681C172.172 372.325 171.842 373.716 171.505 374.855L171.275 375.632L169.922 379.887L166.418 378.851L170.835 367.092L175.219 368.389L174.297 376.582L177.843 369.165L182.244 370.467L179.554 382.736ZM186.855 384.896L187.078 382.428L184.23 381.586L183.092 383.783L179.381 382.685L186.439 371.708L190.685 372.964L190.618 386.009L186.855 384.896ZM185.466 379.248L187.313 379.794L187.775 374.807L185.466 379.248ZM199.742 375.268C201.227 375.707 202.376 376.56 203.19 377.827L200.978 379.275C200.708 378.92 200.427 378.624 200.134 378.387C199.852 378.154 199.528 377.983 199.159 377.874C198.457 377.666 197.817 377.821 197.239 378.338C196.672 378.859 196.204 379.74 195.837 380.983C195.469 382.226 195.389 383.216 195.597 383.953C195.807 384.679 196.275 385.149 197 385.363C197.391 385.479 197.778 385.505 198.159 385.443C198.552 385.384 199.003 385.255 199.513 385.055L200.484 387.482C199.858 387.823 199.152 388.052 198.366 388.17C197.595 388.28 196.819 388.219 196.036 387.987C194.851 387.637 193.898 387.092 193.178 386.354C192.462 385.603 192.009 384.681 191.819 383.586C191.63 382.492 191.738 381.26 192.143 379.89C192.531 378.579 193.106 377.522 193.869 376.722C194.635 375.91 195.522 375.384 196.532 375.144C197.544 374.893 198.615 374.935 199.742 375.268ZM214.173 379.913L210.62 391.926L207.064 390.874L209.842 381.484L208.133 380.979L206.735 384.245C206.176 385.543 205.634 386.572 205.109 387.33C204.596 388.092 203.987 388.65 203.281 389.004C202.587 389.362 201.737 389.486 200.731 389.376L200.617 386.715C201.071 386.661 201.44 386.514 201.724 386.272C202.023 386.023 202.29 385.67 202.525 385.214C202.772 384.761 203.115 384.025 203.555 383.003L205.94 377.477L214.173 379.913ZM224.691 383.024L221.137 395.037L217.581 393.985L218.791 389.895L217.98 389.655L214.975 393.214L211.109 392.071L215.057 388.114C214.478 387.617 214.1 387.055 213.923 386.427C213.749 385.788 213.79 385.036 214.045 384.173C214.444 382.827 215.164 381.957 216.206 381.565C217.248 381.172 218.626 381.23 220.341 381.737L224.691 383.024ZM219.496 387.513L220.415 384.406L219.794 384.222C219.287 384.072 218.848 384.098 218.475 384.301C218.117 384.496 217.862 384.852 217.708 385.369C217.569 385.841 217.592 386.249 217.779 386.592C217.98 386.926 218.299 387.159 218.737 387.288L219.496 387.513ZM228.928 397.342L230.363 392.492L227.618 391.68L226.184 396.53L222.628 395.478L226.182 383.465L229.737 384.517L228.425 388.953L231.169 389.764L232.482 385.328L236.037 386.38L232.484 398.394L228.928 397.342ZM240.272 400.698L240.495 398.23L237.647 397.387L236.509 399.584L232.798 398.487L239.856 387.51L244.102 388.766L244.035 401.811L240.272 400.698ZM238.883 395.05L240.73 395.596L241.192 390.608L238.883 395.05ZM256.92 392.557L253.366 404.571L249.81 403.519L251.02 399.428L250.209 399.188L247.204 402.748L243.337 401.604L247.286 397.648C246.707 397.151 246.329 396.589 246.152 395.961C245.978 395.321 246.019 394.57 246.274 393.707C246.672 392.361 247.393 391.491 248.435 391.099C249.477 390.706 250.855 390.764 252.57 391.271L256.92 392.557ZM251.725 397.046L252.644 393.939L252.022 393.756C251.516 393.606 251.077 393.632 250.704 393.835C250.346 394.029 250.09 394.385 249.937 394.903C249.798 395.375 249.821 395.782 250.008 396.125C250.209 396.46 250.528 396.692 250.965 396.822L251.725 397.046Z" fill="black"/>
<path d="M214.568 319.829L212.299 323.428L204.613 321.155L201.913 327.072L208.626 329.058L206.927 332.825L200.215 330.84L196.176 339.682L190.772 338.084L200.908 315.788L214.568 319.829ZM222.372 322.137L212.236 344.433L206.832 342.835L216.968 320.539L222.372 322.137ZM240.885 334.33C240.415 335.918 239.606 337.212 238.459 338.211C237.312 339.21 235.631 339.832 233.418 340.078L234.892 351.135L228.985 349.388L228.082 339.485L225.843 338.786L221.97 347.313L216.567 345.714L226.702 323.419L234.187 325.633C236.961 326.453 238.917 327.616 240.053 329.12C241.19 330.624 241.467 332.361 240.885 334.33ZM227.502 335.152L229.885 335.857C231.317 336.281 232.476 336.186 233.363 335.572C234.257 334.936 234.87 334.059 235.2 332.94C235.465 332.045 235.366 331.31 234.904 330.736C234.47 330.145 233.66 329.674 232.474 329.323L230.427 328.718L227.502 335.152ZM249.036 355.319L250.045 350.179L243.299 348.184L239.974 352.638L234.335 350.97L251.385 330.72L257.963 332.666L254.708 356.997L249.036 355.319ZM245.924 344.617L250.824 346.066L252.944 335.196L245.924 344.617Z" fill="black"/>
</svg>
